<?xml version="1.0" standalone="no"?>
<!DOCTYPE svg PUBLIC "-//W3C//DTD SVG 20010904//EN"
 "http://www.w3.org/TR/2001/REC-SVG-20010904/DTD/svg10.dtd">
<svg version="1.0" xmlns="http://www.w3.org/2000/svg"
 width="1908.000000pt" height="1335.000000pt" viewBox="0 0 1908.000000 1335.000000"
 preserveAspectRatio="xMidYMid meet">

<g transform="translate(0.000000,1335.000000) scale(0.100000,-0.100000)"
fill="#000000" stroke="none">
<path d="M18080 13310 c0 -33 -4 -42 -22 -50 -59 -24 -88 -70 -88 -137 0 -37
-5 -56 -17 -65 -48 -37 -125 -124 -153 -174 -30 -54 -31 -57 -13 -76 16 -18
18 -41 18 -225 0 -231 8 -209 -89 -244 -85 -31 -106 -55 -106 -123 0 -71 13
-103 47 -118 16 -7 30 -16 33 -19 21 -29 304 -68 492 -69 162 0 263 20 336 68
49 33 52 37 52 76 0 23 4 46 10 52 6 6 6 22 0 44 -12 40 -74 85 -136 98 -46 9
-52 24 -53 135 -1 61 -4 77 -16 77 -8 0 -15 6 -15 14 0 8 7 16 15 20 20 7 19
40 -1 60 -14 15 -14 17 0 32 18 18 19 24 7 43 -10 16 -2 26 42 54 l29 19 -21
22 c-12 12 -21 26 -21 30 0 18 -104 157 -135 180 -22 17 -35 37 -40 62 -10 58
-44 122 -76 145 -22 16 -29 28 -29 55 0 38 9 42 45 18 23 -15 25 -15 31 0 9
22 8 22 -63 30 l-63 7 0 -41z m205 -580 c3 -5 -1 -10 -9 -10 -9 0 -16 5 -16
10 0 6 4 10 9 10 6 0 13 -4 16 -10z m75 -20 c0 -5 -7 -10 -15 -10 -8 0 -15 5
-15 10 0 6 7 10 15 10 8 0 15 -4 15 -10z m-52 -59 c3 -8 -1 -12 -9 -9 -7 2
-15 10 -17 17 -3 8 1 12 9 9 7 -2 15 -10 17 -17z m48 -22 c8 -14 -18 -31 -30
-19 -9 9 0 30 14 30 5 0 12 -5 16 -11z m-271 -79 c-3 -5 -11 -10 -16 -10 -6 0
-7 5 -4 10 3 6 11 10 16 10 6 0 7 -4 4 -10z m205 0 c0 -5 -7 -10 -15 -10 -8 0
-15 5 -15 10 0 6 7 10 15 10 8 0 15 -4 15 -10z m66 -17 c-7 -7 -26 7 -26 19 0
6 6 6 15 -2 9 -7 13 -15 11 -17z m-191 -20 c31 -36 31 -46 -1 -64 -24 -13 -28
-12 -50 14 -30 35 -30 42 -2 61 28 20 25 21 53 -11z m-78 -110 c-16 -16 -17
-15 -17 17 0 32 1 33 17 17 16 -16 16 -18 0 -34z m123 -3 c0 -20 -5 -30 -15
-30 -24 0 -31 31 -10 46 25 18 25 18 25 -16z"/>
<path d="M8449 13050 l-356 -5 -129 -88 c-110 -75 -614 -423 -1001 -690 -62
-43 -114 -77 -114 -75 -1 2 -3 39 -4 83 -2 58 -10 99 -29 148 -32 84 -55 118
-112 161 -45 34 -45 34 -77 18 -18 -9 -34 -21 -36 -25 -7 -18 -58 -60 -88 -73
-18 -8 -33 -20 -33 -27 0 -13 -94 -132 -160 -205 -22 -23 -40 -48 -40 -55 0
-20 -103 -123 -137 -138 -63 -27 -39 -36 92 -36 82 0 129 -3 137 -11 17 -17 9
-21 -58 -32 -142 -25 -167 -32 -153 -41 8 -5 43 -9 79 -9 36 0 82 -3 102 -6
33 -6 37 -10 36 -35 -1 -16 -5 -29 -10 -29 -5 0 -6 -5 -3 -10 4 -6 2 -16 -3
-23 -6 -7 -10 -39 -9 -72 l2 -60 100 0 100 0 0 -65 0 -65 -89 -8 c-49 -4 -91
-5 -95 -2 -3 4 -8 32 -11 63 -3 40 -9 57 -19 57 -8 0 -16 -6 -19 -14 -3 -9 0
-11 9 -5 12 7 12 5 0 -9 -7 -9 -11 -26 -8 -37 3 -11 1 -23 -4 -26 -5 -3 -7
-16 -5 -28 5 -26 -16 -41 -69 -50 -125 -21 -209 -46 -157 -46 33 0 43 -30 32
-91 -6 -28 -10 -68 -10 -89 l0 -37 52 -6 c28 -4 55 -12 60 -19 13 -20 5 -113
-9 -110 -8 1 -13 -8 -13 -23 0 -25 1 -25 92 -25 50 0 89 -2 87 -4 -3 -3 -65
-10 -139 -16 -74 -6 -187 -17 -250 -25 -63 -8 -133 -15 -157 -15 -24 0 -43 -4
-43 -9 0 -9 79 -25 182 -37 32 -4 63 -13 69 -20 9 -11 6 -49 -10 -157 -12 -78
-24 -150 -27 -159 -5 -16 4 -18 93 -17 153 2 235 12 245 29 4 8 15 33 24 54
28 70 34 24 29 -199 -3 -115 -7 -585 -9 -1043 l-4 -833 71 6 c40 4 108 11 152
16 44 5 85 9 92 9 20 0 17 97 -4 118 -15 15 -15 17 -1 20 13 2 17 30 23 163 4
102 11 162 18 166 15 9 338 8 440 -1 l77 -8 -5 -275 -4 -275 47 5 c26 2 106
15 179 28 123 21 168 21 133 -2 -13 -8 -13 -10 0 -20 24 -17 285 -5 340 16 25
9 60 22 78 28 17 7 32 15 32 18 0 4 -22 9 -50 13 -49 7 -50 7 -64 54 -8 26
-35 78 -60 117 -44 66 -46 72 -46 141 0 40 -3 79 -6 88 -5 13 -33 14 -212 11
-114 -2 -199 -2 -189 1 10 3 17 15 17 30 0 19 5 24 26 24 19 0 25 -4 21 -15
-18 -45 91 -12 160 49 26 23 80 66 118 96 39 30 86 68 106 85 20 16 58 48 85
70 26 22 58 49 70 60 52 46 189 155 430 340 74 57 116 70 129 38 4 -10 11 -81
15 -158 5 -77 13 -163 19 -192 6 -28 13 -91 17 -141 6 -78 5 -90 -10 -95 -25
-10 -104 2 -139 19 -34 18 -124 29 -161 20 -35 -9 -53 -43 -33 -63 25 -25 129
-63 174 -63 44 0 133 -33 133 -49 0 -5 -33 -38 -73 -73 -104 -89 -293 -248
-314 -263 -15 -11 -15 -13 7 -25 29 -15 198 -19 208 -4 4 5 44 40 89 77 59 49
84 64 90 55 4 -7 6 -47 5 -88 -3 -67 -1 -77 18 -95 19 -17 34 -20 99 -17 76 3
207 -13 215 -27 3 -4 -12 -8 -32 -9 -20 -1 -86 -8 -147 -16 -265 -34 -629 -79
-860 -107 -137 -16 -315 -38 -395 -49 -80 -11 -221 -29 -315 -40 -223 -27
-360 -48 -411 -62 -35 -10 -41 -15 -38 -37 1 -14 8 -99 14 -190 11 -167 15
-186 30 -176 13 8 40 -6 40 -20 0 -7 5 -15 12 -17 24 -8 -1 -38 -32 -38 -20 0
-30 -5 -30 -15 0 -11 11 -15 36 -15 29 0 33 -2 22 -13 -7 -7 -21 -16 -30 -20
-15 -5 -18 -19 -18 -75 0 -106 7 -129 49 -154 20 -12 40 -27 44 -32 6 -8 10
-7 14 2 5 14 33 17 33 3 0 -6 -5 -13 -10 -16 -13 -8 -7 -71 10 -106 11 -24 17
-26 63 -25 27 0 52 -4 54 -9 2 -6 -9 -11 -23 -10 -15 0 -29 -6 -31 -12 -3 -9
8 -13 36 -13 44 0 49 -6 27 -35 -8 -11 -12 -24 -9 -31 5 -12 -24 -23 -45 -16
-9 3 -10 8 -3 16 7 9 6 19 -5 34 l-15 22 -18 -21 c-11 -13 -23 -19 -30 -15 -9
6 -9 11 1 23 10 12 9 17 -5 24 -9 6 -17 19 -17 29 0 11 -9 29 -20 40 -11 11
-20 28 -21 38 0 12 -3 10 -11 -8 -13 -31 -22 -12 -16 35 3 26 0 35 -15 39 -16
4 -18 0 -12 -47 4 -29 11 -81 15 -117 4 -36 8 -51 9 -33 2 44 19 51 46 17 20
-25 22 -32 11 -49 -18 -27 -24 -79 -12 -91 6 -6 19 -13 29 -17 10 -4 15 -11
12 -17 -8 -12 -35 -13 -35 -1 0 5 -11 8 -25 7 -21 -1 -25 -6 -25 -33 0 -27 5
-33 33 -42 198 -63 993 -298 1252 -371 55 -15 147 -41 205 -58 403 -116 411
-118 426 -97 15 20 26 22 529 100 376 57 815 117 829 112 6 -2 -2 -7 -19 -10
-118 -26 -1103 -177 -1268 -194 -44 -5 -66 -17 -54 -29 15 -15 689 -188 1277
-327 455 -108 568 -135 720 -167 80 -16 174 -37 210 -45 199 -46 1248 -259
1570 -319 47 -8 171 -32 275 -51 197 -38 214 -41 405 -75 304 -54 804 -84
1047 -61 67 6 134 16 149 21 15 6 63 18 107 27 104 21 183 65 191 106 13 63 7
82 -36 123 -83 79 -317 185 -843 381 -66 24 -127 48 -137 53 -9 5 -78 6 -155
3 l-138 -5 -60 39 c-78 52 -100 77 -97 114 2 23 -2 29 -17 29 -10 0 -35 7 -54
15 -47 20 -47 20 -47 -14 0 -40 -29 -163 -42 -179 -12 -14 -244 -16 -253 -2
-3 4 2 13 10 20 8 7 15 19 15 26 0 19 -48 30 -63 14 -9 -9 -7 -11 8 -8 28 4
25 -21 -5 -43 -20 -14 -34 -16 -72 -10 -26 4 -51 4 -56 -1 -13 -13 -135 -5
-139 9 -2 6 6 21 18 32 13 11 20 23 17 26 -3 3 -18 -9 -33 -27 -16 -18 -33
-33 -39 -33 -6 0 -16 -4 -23 -8 -22 -14 -53 29 -54 76 0 32 -2 37 -9 22 -5
-11 -9 -37 -9 -57 -1 -39 -10 -51 -33 -43 -20 8 -39 54 -45 112 -8 69 1 96 43
143 20 22 32 40 28 41 -5 0 22 9 60 19 64 17 126 17 126 0 0 -3 14 -5 30 -2
28 4 36 -3 31 -30 0 -5 7 -8 17 -8 11 0 18 7 18 20 0 12 -7 20 -18 20 -18 0
-31 13 -22 22 3 3 6 39 8 79 3 75 16 117 110 374 21 55 33 96 27 90 -19 -19
-144 -271 -168 -339 -18 -51 -23 -85 -21 -130 l3 -61 -80 -6 c-44 -3 -97 -13
-118 -22 -38 -16 -38 -16 -83 18 -24 19 -59 38 -77 43 -34 9 -167 -4 -167 -17
0 -4 30 -8 67 -9 59 -3 74 -7 120 -39 54 -37 62 -50 41 -71 -9 -9 -9 -17 1
-36 10 -18 11 -46 5 -117 -10 -98 -25 -122 -46 -72 -11 27 -12 28 -16 5 -3
-18 -9 -23 -23 -19 -10 3 -22 1 -25 -4 -11 -19 -54 -8 -88 22 -19 16 -46 54
-60 82 -16 33 -25 44 -26 31 0 -23 56 -114 71 -114 5 0 9 -7 9 -15 0 -11 -11
-15 -40 -15 -36 0 -40 3 -40 25 0 18 -9 29 -32 41 l-33 16 23 -21 c25 -25 21
-46 -7 -32 -25 14 -44 39 -37 50 7 11 -22 24 -35 15 -5 -3 -9 -14 -9 -25 0
-10 -4 -19 -8 -19 -23 0 -92 63 -108 99 -32 68 -67 45 -45 -29 12 -41 52 -77
98 -89 15 -4 29 -13 31 -19 7 -23 -153 -6 -183 20 -5 4 -17 8 -27 8 -28 0 -98
76 -98 106 0 26 38 104 50 104 3 0 15 8 26 18 30 27 98 69 138 86 33 14 37 14
43 -1 4 -9 -1 -19 -10 -24 -20 -12 -61 -78 -53 -86 7 -8 7 -8 39 43 22 36 36
45 99 67 40 15 87 28 103 29 28 3 26 6 -35 36 -71 36 -101 59 -62 48 12 -3 32
-9 45 -12 12 -3 -7 11 -42 32 -77 47 -103 81 -109 145 -4 40 -8 49 -24 49 -39
0 -308 91 -308 105 0 7 7 19 17 26 9 8 48 52 87 99 192 231 407 460 433 460
14 0 31 -16 52 -48 49 -76 105 -132 132 -132 13 0 65 7 114 15 105 17 197 19
211 5 14 -14 27 3 42 56 20 70 20 70 -60 70 -127 -1 -208 13 -258 46 -48 31
-110 102 -110 125 0 20 240 271 295 308 21 15 54 10 130 -19 22 -8 53 -15 70
-16 16 0 54 -10 83 -22 43 -18 57 -20 72 -10 11 7 32 12 47 12 18 0 24 3 17
10 -7 7 -7 28 -1 64 8 43 7 59 -6 86 -9 18 -14 37 -11 42 3 5 -11 2 -33 -7
-86 -38 -119 -45 -197 -45 -81 0 -176 22 -176 41 0 5 17 16 37 24 32 13 42 14
62 3 25 -14 105 -16 134 -5 13 5 15 11 8 24 -5 10 -15 33 -22 51 -15 41 -62
78 -111 87 -43 8 -43 8 -24 38 8 12 16 44 17 71 3 43 0 51 -21 65 -14 9 -41
31 -61 49 -20 17 -42 32 -49 32 -13 0 -60 49 -60 62 0 4 -10 7 -22 5 -15 -1
-26 5 -33 21 -5 12 -17 22 -26 22 -38 0 -81 117 -80 220 0 39 2 74 4 78 3 4 8
68 12 142 4 74 9 138 12 143 3 5 16 6 29 3 17 -5 24 -2 24 8 0 8 5 16 11 18
15 5 13 83 -5 132 -13 37 -16 39 -62 43 -27 2 -182 17 -344 33 -379 39 -519
47 -548 31 -12 -6 -41 -16 -64 -20 -47 -10 -117 -36 -193 -71 -36 -17 -102
-75 -232 -203 -107 -105 -188 -177 -195 -174 -10 3 -25 95 -51 315 -21 171
-41 319 -44 331 -9 33 -69 49 -218 56 -79 4 -174 15 -219 26 -43 10 -104 19
-135 19 -31 0 -81 7 -111 16 -30 8 -75 19 -100 23 -25 4 -65 17 -90 28 -25 12
-70 31 -100 44 -72 31 -153 82 -198 126 -21 19 -79 59 -129 89 -52 31 -93 62
-93 70 0 8 73 97 163 197 89 100 228 259 308 352 427 501 606 711 613 723 10
16 -292 682 -309 682 -6 0 -74 -53 -151 -117 -77 -65 -209 -175 -293 -245 -84
-71 -157 -128 -163 -128 -13 0 -15 -10 81 330 43 151 81 285 84 298 9 37 -16
20 -28 -19 -5 -19 -18 -45 -27 -59 -10 -13 -18 -31 -18 -40 0 -8 -15 -38 -34
-65 -19 -28 -42 -63 -51 -80 -8 -16 -25 -47 -38 -67 -12 -20 -46 -77 -75 -126
-29 -49 -59 -95 -67 -102 -10 -8 -15 -31 -15 -70 0 -72 19 -91 98 -101 57 -7
83 0 174 47 14 8 32 14 40 14 7 0 32 13 55 28 23 15 78 47 123 72 44 25 103
61 130 81 81 59 133 83 163 75 30 -7 86 -87 87 -121 0 -12 9 -38 20 -60 16
-31 20 -59 20 -138 0 -78 -4 -106 -20 -137 -11 -22 -20 -47 -20 -57 0 -27
-153 -263 -208 -322 -19 -20 -39 -46 -46 -59 -7 -13 -28 -42 -47 -64 -70 -84
-409 -416 -459 -449 -14 -10 -37 -28 -51 -41 -15 -12 -61 -48 -103 -78 -42
-30 -116 -86 -164 -123 -48 -37 -107 -79 -132 -94 -25 -14 -65 -42 -90 -62
-25 -20 -72 -54 -105 -76 -33 -22 -96 -69 -140 -104 -44 -36 -100 -77 -125
-93 -48 -30 -90 -62 -154 -118 -38 -33 -162 -126 -212 -161 -12 -8 -61 -48
-110 -89 -119 -102 -344 -280 -354 -280 -10 0 -25 40 -49 130 -11 41 -38 143
-61 225 -79 288 -123 460 -124 484 -1 21 7 25 65 41 109 28 107 26 74 60 -25
27 -35 29 -104 32 l-76 3 -16 55 c-147 491 -202 688 -196 704 3 7 67 32 143
57 112 36 132 45 109 49 -30 5 -30 6 -37 89 -4 46 -8 84 -10 86 -2 2 -65 7
-140 12 -76 5 -140 12 -143 15 -12 12 -57 199 -51 213 4 11 21 15 58 15 29 0
59 4 66 8 9 7 4 51 -27 206 -21 108 -41 200 -44 203 -3 3 -44 8 -91 10 -92 6
-110 20 -59 45 15 7 29 22 32 33 2 11 15 34 29 50 25 31 114 95 130 95 5 0 29
15 53 33 24 19 67 46 94 62 28 16 63 39 78 52 15 12 47 32 70 43 23 11 70 39
104 62 86 60 152 101 187 116 17 7 33 17 36 21 6 10 98 60 220 121 47 23 101
51 121 61 20 11 43 19 52 19 8 0 20 7 27 15 7 8 22 15 34 15 11 0 35 9 51 20
17 11 41 20 55 20 14 1 36 7 50 15 14 8 46 14 71 15 26 0 64 7 85 16 74 31
572 16 639 -20 17 -9 41 -16 54 -16 34 0 173 -64 216 -99 11 -9 43 -32 70 -50
28 -18 61 -48 75 -67 14 -19 34 -47 45 -61 11 -15 25 -43 31 -63 l11 -35 21
70 c37 123 53 99 -183 288 -115 93 -236 188 -268 213 l-59 44 -86 -2 c-48 -1
-247 -5 -443 -8z m-2069 -1725 c0 -32 -5 -47 -15 -52 -9 -3 -19 -3 -22 1 -6 6
25 96 33 96 2 0 4 -20 4 -45z m512 -343 c-13 -10 -34 -31 -47 -47 l-24 -30 -1
28 c0 35 32 67 68 67 l27 0 -23 -18z m-139 -99 c-7 -2 -21 -2 -30 0 -10 3 -4
5 12 5 17 0 24 -2 18 -5z m132 -263 l0 -115 -45 -22 c-182 -91 -253 -122 -262
-117 -7 5 -9 47 -5 127 5 109 9 124 34 166 l29 46 75 6 c42 4 85 11 95 18 10
6 33 10 49 8 l30 -2 0 -115z m128 -560 c26 0 31 -26 9 -50 -10 -11 -24 -38
-31 -60 -6 -21 -19 -41 -29 -44 -9 -3 -22 -16 -27 -28 -19 -44 -108 -33 -134
16 -36 67 86 186 174 170 11 -2 28 -4 38 -4z m-115 -436 l92 -6 -6 -66 c-4
-37 -11 -70 -16 -73 -5 -3 -55 -11 -111 -18 -56 -6 -121 -14 -144 -17 l-43 -6
0 86 c0 80 2 87 22 95 28 10 91 12 206 5z m2990 -236 c5 -58 -25 -72 -138 -66
-96 6 -129 20 -108 45 20 25 51 36 128 49 109 17 114 16 118 -28z m-2478 -103
c0 -21 -32 -63 -47 -61 -25 4 -28 26 -3 26 13 0 24 8 27 20 5 18 23 29 23 15z
m4300 -173 c25 -12 56 -22 70 -22 14 0 52 -9 85 -19 33 -11 101 -32 150 -48
73 -23 90 -32 90 -48 0 -32 -88 -52 -287 -66 -282 -20 -559 7 -605 58 -13 13
-23 30 -23 36 0 25 57 78 115 107 60 30 60 30 210 26 127 -3 157 -6 195 -24z
m-4340 -22 c0 -34 -7 -38 -26 -12 -19 25 -17 42 6 42 16 0 20 -7 20 -30z m358
-86 c30 -8 28 -20 -4 -28 -15 -4 -42 -18 -61 -31 -34 -23 -35 -25 -36 -94 -1
-39 -5 -71 -9 -71 -4 0 -7 -4 -5 -9 1 -5 -2 -8 -7 -7 -5 0 -10 47 -10 103 -1
59 -5 104 -11 106 -5 2 -24 0 -42 -5 -28 -7 -31 -11 -24 -36 6 -21 -2 -101 -8
-82 -10 30 -7 111 4 126 17 24 158 42 213 28z m-211 -206 c-3 -8 -6 -5 -6 6
-1 11 2 17 5 13 3 -3 4 -12 1 -19z m23 -34 c0 -2 -7 -4 -15 -4 -8 0 -15 4 -15
10 0 5 7 7 15 4 8 -4 15 -8 15 -10z m70 -39 c0 -8 -4 -15 -10 -15 -5 0 -7 7
-4 15 4 8 8 15 10 15 2 0 4 -7 4 -15z m4114 -844 c29 -17 73 -48 96 -69 54
-48 51 -64 -26 -147 -107 -115 -222 -251 -409 -484 -67 -83 -95 -111 -110
-109 -13 2 -21 12 -23 31 -2 15 -10 27 -17 27 -16 0 -481 112 -598 144 -43 11
-78 26 -77 31 1 11 82 41 147 55 24 5 56 16 72 25 17 8 40 15 53 15 21 0 81
21 165 56 17 8 36 14 42 14 7 0 45 22 86 50 76 51 149 133 238 266 75 112 120
136 240 129 52 -3 80 -11 121 -34z m-4864 -69 c0 -11 9 -27 20 -37 11 -10 18
-20 15 -23 -3 -3 1 -12 8 -20 10 -13 9 -14 -11 -3 -12 7 -32 9 -42 6 -11 -4
-20 -2 -20 3 0 6 5 12 12 14 8 3 8 9 1 22 -11 20 -6 56 8 56 5 0 9 -8 9 -18z
m3122 -129 c88 -5 102 -9 160 -44 35 -21 89 -52 121 -70 64 -36 82 -59 73 -95
-6 -24 -7 -23 -41 13 -26 28 -38 34 -46 26 -14 -14 -36 -7 -114 41 -59 35 -88
42 -132 30 -33 -9 -29 -18 26 -57 51 -37 71 -71 52 -90 -6 -6 -11 -18 -11 -26
0 -8 -7 -23 -16 -32 -15 -17 -15 -24 -1 -76 25 -95 67 -236 77 -260 25 -57 31
-71 49 -121 10 -28 16 -54 12 -56 -4 -3 -93 -8 -197 -12 -201 -7 -242 -1 -404
54 l-55 19 1 139 c0 76 2 154 3 172 2 18 1 36 -3 39 -8 8 -658 -118 -682 -133
-23 -14 -12 -16 -206 39 -94 27 -148 48 -148 58 0 4 23 12 51 19 37 9 54 9 62
1 6 -6 24 -11 39 -11 15 0 28 -5 28 -10 0 -18 63 -40 78 -28 9 8 23 6 50 -5
61 -25 102 -29 130 -11 14 9 35 14 50 11 15 -3 36 0 47 6 21 11 86 25 167 34
33 3 47 10 51 22 4 15 13 17 61 13 36 -3 61 0 71 8 9 7 27 10 44 7 17 -4 36 0
49 9 11 8 31 13 43 12 19 -3 23 2 24 32 1 19 9 49 17 65 16 30 34 108 47 194
6 44 6 44 71 68 53 19 77 23 135 18 39 -3 114 -8 167 -12z m266 -310 c53 -6
65 -20 37 -43 -23 -19 -135 10 -135 35 0 18 12 26 29 19 9 -3 40 -8 69 -11z
m-1656 -233 c117 -34 217 -65 221 -69 13 -13 20 -138 8 -146 -6 -3 -79 15
-163 40 -84 26 -191 58 -238 72 -47 14 -89 29 -94 33 -5 5 -3 32 4 62 17 77
19 81 35 74 8 -3 110 -33 227 -66z m2442 -38 c3 -5 -32 -31 -77 -57 -45 -27
-97 -62 -116 -78 -37 -32 -55 -29 -25 4 24 27 185 138 201 138 6 1 14 -3 17
-7z m-264 -186 c0 -3 -15 -19 -32 -35 -27 -26 -41 -31 -78 -30 l-45 1 43 9
c24 4 57 20 73 34 30 25 39 29 39 21z"/>
<path d="M4785 12493 c2 -16 7 -113 10 -218 12 -345 38 -716 55 -774 5 -17 6
-88 3 -157 -6 -131 9 -276 34 -324 13 -26 17 -78 7 -104 -5 -12 -40 -15 -236
-16 -210 -1 -232 1 -244 17 -13 16 -14 15 -12 -12 l3 -30 192 -5 c105 -3 195
-8 199 -12 4 -5 3 -8 -2 -8 -6 0 -58 -30 -116 -67 -85 -55 -192 -147 -549
-473 -244 -223 -576 -526 -739 -674 -162 -149 -376 -344 -475 -434 -99 -91
-353 -336 -565 -546 -212 -210 -631 -625 -931 -921 -458 -454 -551 -550 -581
-605 -20 -36 -94 -168 -164 -295 -70 -126 -244 -441 -387 -700 l-260 -470 7
-500 7 -500 402 -403 403 -402 674 -256 675 -256 225 -34 c124 -19 437 -66
695 -104 259 -39 531 -80 605 -91 118 -18 207 -44 705 -206 865 -281 867 -281
910 -306 22 -13 360 -224 750 -468 l710 -445 460 -364 c253 -201 517 -410 586
-465 69 -55 245 -193 390 -307 145 -113 365 -285 489 -382 l225 -176 155 1
c148 0 153 1 120 16 -19 8 -52 23 -72 34 -20 10 -43 19 -50 19 -7 0 -38 13
-68 29 -30 16 -86 46 -124 66 -38 20 -90 50 -115 67 -25 16 -54 34 -65 38 -49
19 -475 343 -586 445 -151 139 -261 237 -324 290 -157 129 -256 214 -376 320
-116 103 -178 154 -454 370 -56 44 -131 103 -165 130 -35 28 -98 75 -141 105
-42 30 -99 72 -126 93 -62 48 -186 136 -229 162 -49 30 -184 120 -235 157 -25
18 -56 38 -70 44 -14 6 -42 26 -64 43 -21 17 -43 31 -48 31 -7 0 -101 53 -178
100 -8 5 -42 21 -75 35 -33 15 -67 30 -75 35 -8 5 -40 21 -70 35 -30 14 -73
34 -95 45 -22 10 -57 24 -77 30 -21 6 -40 16 -43 21 -4 5 -14 9 -23 9 -9 0
-30 7 -47 16 -31 16 -104 43 -187 70 -26 8 -50 19 -53 24 -3 6 -18 10 -33 10
-15 0 -46 9 -70 20 -23 10 -59 22 -80 26 -20 4 -53 15 -72 25 -19 11 -49 19
-66 19 -18 0 -51 9 -75 20 -24 11 -58 20 -74 20 -17 0 -47 9 -68 20 -20 11
-56 20 -80 20 -23 0 -60 9 -82 20 -22 11 -60 20 -85 20 -25 1 -63 8 -85 16
-22 9 -71 20 -110 26 -38 6 -82 16 -97 24 -14 7 -64 18 -110 23 -45 5 -96 17
-113 25 -18 9 -55 16 -91 16 -35 0 -86 9 -119 20 -32 11 -79 20 -104 20 -26 0
-80 9 -121 21 -41 11 -114 24 -161 29 -48 5 -100 15 -117 24 -19 10 -56 16
-97 16 -37 0 -90 8 -123 19 -31 10 -91 21 -132 25 -41 3 -101 15 -132 26 -32
11 -77 20 -101 20 -24 0 -70 9 -102 20 -32 11 -74 20 -94 20 -20 1 -54 8 -76
16 -22 9 -69 20 -104 25 -35 5 -73 15 -85 22 -12 8 -46 17 -77 21 -30 4 -68
14 -84 22 -15 8 -46 17 -69 20 -22 4 -51 12 -63 20 -12 7 -41 17 -65 20 -24 4
-56 16 -73 26 -16 10 -40 18 -53 18 -12 0 -39 9 -59 20 -21 11 -44 20 -51 20
-7 0 -30 8 -50 19 -82 41 -128 61 -140 61 -8 0 -25 9 -39 20 -14 11 -33 20
-42 20 -9 0 -26 7 -38 15 -12 8 -52 31 -90 51 -187 99 -481 336 -513 414 -7
16 -16 30 -20 30 -13 0 -70 98 -70 119 0 10 -9 30 -21 44 -11 15 -23 44 -26
64 -3 21 -14 62 -24 91 -28 78 -27 314 1 397 11 32 20 70 20 84 0 14 9 40 20
56 11 17 20 37 20 45 0 22 56 128 89 170 15 19 34 46 41 60 15 29 111 140 185
213 95 95 406 307 450 307 7 0 24 9 38 20 14 11 33 20 42 20 9 0 28 9 42 20
14 11 35 20 47 20 11 0 30 7 40 15 11 8 28 15 38 15 10 0 36 9 58 20 22 11 51
20 65 20 14 0 39 7 54 14 15 8 52 18 82 22 30 4 63 11 74 17 19 10 148 23 335
33 47 3 112 0 145 -6 33 -5 108 -16 167 -24 104 -13 186 -44 195 -72 2 -7 -13
-32 -34 -56 -50 -59 -100 -130 -143 -203 -96 -162 -120 -262 -94 -386 8 -40
13 -83 10 -95 -3 -12 -57 -69 -118 -126 -62 -56 -139 -129 -170 -160 -32 -32
-61 -58 -65 -58 -5 0 -28 -18 -51 -40 -24 -22 -47 -40 -51 -40 -10 0 -71 64
-86 92 -8 13 -28 52 -45 88 -18 36 -40 81 -50 101 -10 19 -22 53 -26 75 -4 21
-13 49 -21 61 -8 12 -19 59 -23 105 -5 46 -14 108 -21 138 -6 30 -8 74 -5 98
3 24 1 52 -4 63 -12 21 -40 25 -58 7 -18 -18 -15 -212 4 -268 8 -24 19 -76 23
-115 5 -39 15 -84 23 -100 9 -17 19 -46 23 -65 4 -19 13 -42 20 -50 7 -8 18
-34 24 -57 7 -23 16 -45 21 -48 6 -4 17 -21 25 -38 15 -32 21 -43 62 -108 13
-19 23 -42 23 -51 0 -17 -124 -118 -211 -174 -142 -89 -160 -104 -157 -127 5
-34 58 -27 121 17 29 20 56 36 61 36 5 0 27 15 50 34 93 76 159 116 192 116
28 0 40 -8 76 -52 61 -76 287 -286 341 -317 25 -14 67 -43 94 -64 58 -46 185
-130 263 -174 31 -17 79 -45 106 -62 48 -29 94 -53 304 -153 58 -28 121 -59
141 -69 20 -11 43 -19 50 -19 8 0 25 -9 39 -20 14 -11 33 -20 43 -20 11 0 30
-9 44 -20 14 -11 33 -20 43 -20 19 0 150 -57 150 -66 0 -19 -27 -48 -58 -63
-57 -26 -122 -70 -129 -87 -3 -9 1 -22 8 -29 12 -11 25 -8 84 21 39 18 73 33
77 34 5 0 30 16 57 35 39 29 57 35 97 35 32 0 59 -7 79 -20 17 -11 41 -20 55
-20 14 0 35 -7 46 -14 12 -8 42 -20 67 -27 26 -6 52 -17 58 -25 6 -8 26 -14
43 -14 17 0 46 -9 64 -20 18 -11 43 -20 55 -20 12 0 38 -8 57 -19 19 -10 53
-21 75 -25 21 -4 51 -13 65 -21 14 -7 43 -16 64 -19 21 -4 48 -14 60 -21 12
-7 39 -17 61 -20 22 -4 50 -13 62 -21 12 -7 41 -17 65 -20 24 -4 59 -15 78
-26 19 -10 47 -18 62 -18 16 0 45 -9 65 -20 21 -11 52 -20 69 -20 18 0 51 -9
75 -20 24 -11 55 -20 69 -20 14 0 39 -7 55 -16 17 -9 54 -20 83 -25 30 -4 62
-15 71 -23 10 -9 33 -16 52 -16 19 -1 52 -8 74 -16 22 -9 65 -21 95 -28 78
-19 143 -56 150 -86 7 -31 33 -37 65 -16 33 22 94 20 146 -4 24 -11 56 -20 71
-20 15 0 50 -9 78 -20 28 -11 62 -20 76 -20 14 0 42 -9 64 -20 22 -11 54 -20
72 -20 18 0 53 -9 77 -20 24 -11 55 -20 70 -20 14 0 43 -9 64 -20 20 -11 49
-20 65 -20 15 0 45 -9 67 -20 22 -11 50 -20 63 -20 21 0 122 -29 217 -62 17
-5 48 -15 70 -20 22 -6 59 -19 83 -29 23 -10 54 -19 67 -19 14 0 42 -9 62 -20
21 -11 48 -20 61 -20 12 0 40 -9 62 -20 22 -11 52 -20 67 -20 15 0 42 -9 58
-20 17 -11 44 -20 60 -20 17 0 44 -9 60 -20 17 -11 41 -20 55 -20 14 0 43 -9
65 -20 22 -11 49 -20 61 -20 30 0 74 -37 74 -64 0 -16 -32 -51 -110 -120 -126
-112 -140 -131 -116 -155 16 -15 19 -15 51 4 64 37 147 99 237 177 l89 78 37
-16 c20 -9 49 -20 64 -24 15 -5 38 -16 50 -24 12 -9 34 -16 48 -16 14 0 39 -9
56 -19 17 -10 45 -22 62 -25 17 -4 36 -14 43 -22 6 -8 21 -14 32 -14 11 0 38
-9 61 -19 23 -11 76 -34 119 -52 97 -41 97 -40 97 -304 0 -170 3 -212 20 -273
11 -40 20 -102 20 -142 0 -47 7 -86 21 -122 17 -43 22 -84 28 -218 l6 -165 27
-3 c68 -8 227 126 348 293 90 126 400 435 435 435 32 0 171 -93 266 -178 37
-32 95 -81 130 -107 35 -27 110 -86 166 -132 55 -46 104 -83 108 -83 4 0 28
-15 54 -33 62 -44 130 -79 142 -72 25 16 -3 65 -54 92 -24 13 -119 91 -310
258 -236 206 -287 248 -350 289 -32 20 -60 43 -64 52 -4 10 13 35 49 72 30 31
67 73 82 92 16 19 54 63 85 96 61 67 105 127 134 180 10 19 25 34 33 34 44 0
157 -85 296 -222 51 -50 158 -206 158 -229 0 -8 8 -26 17 -39 9 -13 20 -45 24
-70 13 -81 49 -165 77 -182 24 -15 29 -15 65 3 35 18 410 390 506 502 71 83
114 113 123 85 4 -12 -202 -432 -221 -451 -6 -6 -11 -17 -11 -25 0 -8 -9 -25
-20 -39 -11 -14 -20 -33 -20 -42 0 -9 -18 -52 -40 -95 -22 -43 -40 -86 -40
-95 0 -9 27 -43 61 -76 65 -63 149 -171 149 -190 0 -7 9 -22 20 -35 12 -14 20
-37 20 -59 0 -20 7 -47 17 -60 24 -35 30 -158 10 -202 -9 -19 -19 -54 -23 -79
-3 -25 -15 -61 -25 -80 -11 -19 -19 -38 -19 -42 0 -7 -12 -25 -92 -139 -36
-50 -108 -115 -148 -133 -14 -5 -43 -25 -65 -42 -22 -17 -52 -38 -67 -45 -98
-50 -139 -70 -183 -89 -27 -12 -59 -26 -70 -32 -11 -6 -31 -14 -45 -19 -16 -5
8 -8 68 -8 l92 -1 208 126 c114 70 252 154 306 188 l99 61 148 220 c81 120
146 221 144 223 -6 6 -65 -51 -65 -63 -1 -20 -56 -73 -81 -80 l-25 -6 -1 108
c0 171 -56 323 -165 454 -21 25 -38 49 -38 54 0 5 -12 26 -26 47 -39 56 -31
116 32 241 27 54 55 110 62 125 7 15 17 34 23 42 5 8 14 26 19 40 6 14 15 32
20 40 6 8 15 26 21 40 14 30 156 323 210 433 22 43 39 84 39 91 0 8 9 25 20
39 11 14 20 34 20 44 0 10 7 28 15 40 8 11 22 42 31 68 18 54 8 89 -29 99 -24
6 -47 -18 -160 -164 -44 -58 -91 -116 -103 -130 -13 -14 -43 -48 -66 -77 -82
-98 -257 -288 -295 -319 -21 -18 -96 -89 -168 -158 -71 -69 -135 -126 -141
-126 -26 0 -64 42 -70 78 -4 20 -12 44 -19 52 -7 8 -20 31 -29 50 -28 60 -50
96 -69 115 -10 10 -43 49 -73 86 -30 38 -64 75 -77 84 -12 9 -54 39 -93 68
-108 79 -301 170 -383 182 -24 3 -55 12 -70 19 -17 9 -87 16 -212 21 -200 8
-240 2 -384 -57 -110 -46 -243 -153 -302 -245 -18 -29 -42 -57 -53 -63 -11 -6
-20 -20 -20 -30 0 -20 -24 -28 -34 -11 -6 10 27 149 43 178 5 10 26 52 45 93
37 77 42 86 89 154 75 110 107 153 132 176 15 14 36 38 45 53 33 54 306 329
550 555 299 278 703 688 1035 1050 100 108 136 142 155 142 14 0 257 -74 540
-165 283 -90 574 -180 645 -200 72 -20 152 -44 179 -55 27 -11 53 -17 57 -14
5 3 104 73 221 157 117 84 251 176 298 205 47 29 162 102 255 162 214 136 674
429 1045 663 157 100 335 213 395 252 61 40 133 86 160 103 30 19 43 32 32 32
-10 0 -26 -4 -36 -10 -27 -14 -252 -59 -381 -76 -158 -20 -695 -30 -875 -15
-77 6 -322 23 -545 36 -359 22 -487 31 -715 50 -33 3 -130 9 -215 15 -231 14
-408 28 -785 60 -514 45 -653 58 -855 80 -102 11 -286 31 -410 45 -124 13
-308 36 -410 50 -463 62 -566 76 -725 100 -449 67 -1138 193 -1470 270 -33 7
-94 21 -135 31 -242 55 -789 196 -1004 259 -351 102 -721 222 -833 269 -32 13
-87 34 -123 46 -36 12 -70 26 -76 31 -5 4 -37 15 -69 24 -32 8 -62 19 -65 25
-9 15 -70 25 -71 11 -3 -26 -4 -30 -11 -37 -4 -4 -4 -12 1 -18 4 -6 11 -21 14
-34 4 -18 2 -22 -11 -20 -9 2 -18 12 -21 23 -2 11 -11 25 -20 32 -15 11 -15
12 0 13 9 0 19 6 22 14 7 17 -15 38 -33 34 -7 -2 -17 11 -23 27 -12 36 -27 47
-43 34 -7 -6 -25 -7 -41 -2 -15 4 -34 6 -42 4 -7 -1 -10 2 -6 8 3 7 -3 11 -16
11 -20 0 -21 -4 -16 -40 5 -43 -6 -54 -18 -17 -4 12 -7 25 -6 29 0 3 -6 9 -15
12 -10 4 -18 -3 -26 -24 -9 -28 -27 -38 -41 -23 -4 3 -2 12 5 20 16 20 -16 53
-34 35 -14 -14 -58 -16 -58 -2 0 6 5 10 10 10 6 0 10 4 10 9 0 11 -58 71 -68
71 -4 0 -16 -25 -28 -55 l-21 -54 28 -6 c28 -6 38 -20 20 -27 -5 -1 -11 -16
-13 -33 -3 -26 3 -34 50 -65 29 -19 136 -77 239 -130 102 -52 191 -102 196
-111 12 -20 8 -29 -48 -104 -54 -72 -173 -246 -198 -289 -10 -17 -28 -48 -40
-68 -12 -20 -46 -78 -75 -127 -29 -50 -58 -93 -63 -96 -5 -4 -16 -21 -25 -38
-8 -18 -26 -50 -39 -72 -14 -22 -34 -58 -45 -80 -33 -65 -90 -166 -130 -227
-20 -31 -47 -77 -61 -102 -29 -55 -65 -64 -74 -18 -4 15 -15 46 -26 70 -10 23
-19 51 -19 61 0 10 -7 24 -15 31 -8 6 -17 22 -21 33 -8 26 -90 123 -155 184
-56 53 -215 173 -228 173 -5 0 -33 18 -62 40 -30 22 -57 40 -62 40 -9 0 -228
103 -299 140 -20 11 -42 20 -49 20 -14 0 -121 42 -164 64 -17 9 -40 16 -53 16
-12 0 -39 9 -59 20 -21 11 -50 20 -65 20 -15 0 -50 9 -78 20 -28 11 -64 20
-80 20 -16 0 -51 8 -77 19 -26 10 -81 21 -120 25 -40 4 -104 16 -143 27 -86
24 -244 26 -357 4 -43 -8 -109 -15 -148 -15 -46 -1 -77 -6 -89 -15 -12 -9 -42
-15 -73 -15 -34 0 -66 -7 -90 -20 -21 -11 -51 -20 -68 -20 -16 0 -39 -7 -49
-15 -11 -8 -27 -15 -35 -15 -9 -1 -34 -9 -56 -20 -22 -11 -46 -19 -52 -20 -12
0 -230 -100 -263 -120 -265 -161 -482 -361 -586 -541 -6 -10 -18 -27 -26 -36
-9 -10 -19 -33 -23 -51 -4 -21 -16 -37 -30 -44 -13 -6 -25 -20 -27 -31 -4 -27
-28 -34 -28 -8 0 11 4 23 10 26 5 3 10 36 10 73 0 48 6 78 20 105 11 20 20 51
20 68 0 18 8 50 19 73 25 55 59 145 67 178 3 15 12 32 19 38 8 6 16 24 20 39
7 34 109 234 170 336 13 22 27 47 31 55 7 14 102 163 162 253 14 20 29 37 34
37 4 0 12 10 17 23 16 40 122 189 206 286 22 25 51 62 64 81 25 36 64 82 176
207 36 40 65 76 65 81 0 5 24 33 53 63 28 30 83 91 121 137 37 45 76 88 85 95
9 6 24 22 33 35 59 87 755 803 993 1024 66 61 194 183 285 272 192 188 274
265 464 436 77 69 173 160 215 204 42 43 132 130 201 194 69 63 148 136 175
162 50 46 168 150 280 247 207 178 261 223 273 223 6 0 13 -10 13 -22 1 -14 5
-7 11 18 8 30 19 46 42 59 17 10 49 34 71 54 65 58 144 123 199 165 54 40 64
55 65 97 1 15 8 32 16 39 13 11 16 8 21 -18 4 -20 11 -29 19 -25 8 2 22 -8 32
-23 l18 -28 5 44 c7 65 23 70 252 77 139 5 186 9 170 16 -12 6 -22 14 -22 20
0 5 -6 5 -13 -2 -18 -15 -292 -27 -300 -14 -4 6 19 27 51 48 31 21 84 59 117
85 33 26 83 60 110 75 28 16 64 40 80 55 17 15 100 72 185 128 85 56 173 114
195 130 22 16 61 41 88 56 53 31 70 55 65 92 -3 23 -19 14 -273 -150 -643
-415 -739 -476 -746 -469 -3 5 -12 82 -18 173 -6 91 -16 217 -21 280 -6 63
-20 225 -31 360 -11 135 -27 317 -34 405 -8 88 -17 202 -21 253 -4 50 -11 92
-15 92 -5 0 -7 -12 -4 -27z m-97 -5630 c-4 -22 -22 -20 -26 1 -2 10 3 16 13
16 10 0 15 -7 13 -17z m168 -249 c-3 -9 -6 -27 -6 -40 0 -19 -5 -24 -25 -24
-22 0 -25 4 -23 28 2 21 -2 28 -19 30 -43 6 -23 22 28 22 43 0 50 -3 45 -16z
m109 -101 c39 -18 41 -36 6 -41 -30 -5 -72 24 -65 43 8 19 15 19 59 -2z
m-2227 -389 c20 -9 57 -22 82 -29 62 -18 127 -43 176 -66 22 -10 46 -19 53
-19 7 0 25 -7 39 -15 15 -8 54 -26 87 -40 121 -53 172 -81 240 -132 38 -29 74
-53 79 -53 27 0 189 -151 231 -215 73 -111 78 -127 79 -256 0 -107 -2 -121
-22 -148 -12 -17 -22 -34 -22 -39 0 -11 -88 -130 -118 -160 -37 -37 -59 -42
-179 -41 -181 0 -275 18 -398 73 -16 8 -41 19 -55 25 -14 6 -32 15 -40 20 -8
5 -26 14 -40 20 -47 21 -132 69 -149 85 -9 8 -40 28 -68 43 -65 36 -128 88
-228 189 -67 67 -86 94 -113 157 -39 92 -43 164 -12 215 11 18 20 39 20 46 0
7 8 24 19 37 10 13 22 35 26 48 6 21 54 91 97 141 7 9 29 39 48 67 19 29 42
54 50 56 34 10 83 6 118 -9z m3192 -74 c102 -40 191 -77 197 -83 10 -7 7 -16
-12 -39 -30 -36 -31 -43 -5 -100 19 -43 75 -98 100 -98 6 0 27 -8 48 -19 29
-15 70 -20 197 -26 88 -4 166 -12 173 -18 18 -14 5 -103 -23 -152 -24 -43 -40
-61 -142 -167 -36 -38 -71 -68 -79 -68 -7 0 -36 9 -64 20 -28 11 -66 20 -84
20 -18 0 -53 9 -77 19 -24 10 -66 22 -94 26 -27 4 -76 15 -107 26 -32 10 -70
19 -85 19 -15 0 -52 9 -81 20 -29 11 -71 20 -95 20 -23 0 -66 9 -95 20 -29 11
-70 20 -91 20 -21 0 -67 9 -102 19 -35 11 -95 23 -134 27 -38 3 -73 11 -77 17
-12 19 18 60 99 137 43 41 105 105 137 142 37 42 77 76 105 89 61 29 91 57 91
86 0 27 87 126 104 120 6 -3 94 -37 196 -77z m430 -15 c17 -9 30 -20 30 -26 0
-6 9 -8 19 -4 24 7 56 -46 38 -64 -8 -8 -8 -14 1 -23 7 -7 12 -20 12 -30 0
-21 7 -22 39 -4 23 13 23 14 5 24 -18 11 -18 11 4 12 12 0 23 6 23 13 1 6 5
-1 8 -18 9 -38 -19 -75 -52 -68 -27 7 -67 42 -67 60 0 7 -7 13 -15 13 -9 0
-12 -6 -9 -15 7 -18 -7 -20 -24 -3 -8 8 -15 8 -25 -1 -24 -20 -50 -2 -43 30 3
16 1 31 -4 34 -15 9 -12 25 5 25 9 0 12 6 9 15 -6 16 1 45 11 45 3 0 19 -7 35
-15z m445 -205 c3 -5 -1 -10 -9 -10 -9 0 -16 5 -16 10 0 6 4 10 9 10 6 0 13
-4 16 -10z m152 -93 c10 -16 -38 -50 -51 -37 -8 8 -7 13 2 19 7 4 10 15 7 24
-5 12 -2 14 14 10 12 -3 24 -10 28 -16z m-2390 -213 c18 -7 75 -18 126 -23
102 -12 167 -33 167 -55 0 -8 -4 -16 -8 -18 -4 -1 -43 -45 -86 -95 -42 -51
-83 -96 -89 -100 -7 -5 -53 -57 -102 -118 -49 -60 -105 -128 -124 -150 -20
-22 -45 -53 -56 -69 -11 -15 -40 -54 -65 -86 -25 -33 -61 -82 -80 -110 -71
-103 -95 -130 -114 -130 -19 0 -286 263 -286 282 0 6 25 35 55 65 51 50 99
115 213 292 23 36 47 75 53 86 5 11 23 40 39 65 16 25 34 54 39 66 10 22 54
91 72 112 15 17 197 7 246 -14z m676 -131 c16 -8 67 -18 114 -23 46 -5 91 -14
98 -20 7 -6 48 -17 92 -25 43 -7 103 -21 133 -29 30 -9 69 -16 88 -16 18 0 46
-7 63 -15 16 -9 59 -19 97 -24 37 -5 81 -16 97 -25 17 -9 45 -16 62 -16 18 0
59 -9 90 -19 32 -11 70 -22 86 -25 31 -7 36 -35 12 -76 -8 -14 -14 -38 -15
-54 0 -16 -8 -43 -19 -60 -10 -17 -22 -42 -26 -55 -13 -42 -88 -142 -140 -186
-54 -46 -211 -155 -223 -155 -4 0 -34 -18 -67 -40 -33 -22 -64 -40 -69 -40 -4
0 -28 -14 -53 -31 -25 -16 -80 -47 -122 -68 -63 -32 -91 -40 -163 -46 -47 -3
-112 -3 -143 0 -52 7 -63 13 -110 59 -101 101 -214 132 -430 120 -66 -4 -135
-13 -154 -20 -47 -20 -227 -19 -234 0 -5 12 101 165 190 276 185 232 341 419
414 495 31 33 75 79 96 102 l40 43 84 -7 c46 -3 97 -12 112 -20z m-2860 -106
c48 -48 223 -192 271 -221 17 -11 54 -34 81 -52 28 -18 86 -51 129 -73 44 -23
87 -48 96 -56 9 -8 25 -15 36 -15 11 0 36 -9 57 -20 20 -11 46 -20 57 -20 11
0 39 -9 62 -19 24 -10 77 -24 118 -31 41 -7 98 -17 125 -22 71 -13 124 -11
174 7 24 8 54 15 68 15 13 0 34 7 46 15 20 13 25 13 45 -1 12 -8 41 -41 64
-72 44 -60 153 -171 231 -235 26 -21 47 -43 46 -50 0 -7 -20 -39 -45 -72 -24
-33 -59 -83 -78 -110 -19 -28 -53 -68 -75 -90 -22 -22 -41 -45 -41 -52 0 -20
-238 -252 -273 -266 -8 -3 -30 2 -48 12 -19 10 -48 21 -66 25 -17 4 -37 14
-44 22 -6 8 -20 14 -31 14 -18 0 -91 28 -185 71 -57 25 -124 55 -143 63 -8 3
-22 10 -30 15 -8 5 -42 21 -75 36 -33 15 -67 31 -75 36 -8 5 -26 14 -40 20
-14 6 -32 15 -40 20 -8 5 -46 25 -85 44 -198 102 -463 281 -640 432 -101 87
-218 214 -223 241 -2 12 44 59 145 149 81 72 184 165 228 207 44 42 88 76 98
76 11 0 38 -19 60 -43z m6507 -247 c257 -82 610 -196 643 -209 15 -6 27 -14
27 -18 0 -7 -131 -181 -190 -253 -11 -14 -45 -57 -76 -97 -31 -39 -62 -74 -69
-77 -12 -4 -160 50 -261 96 -22 10 -47 18 -55 18 -8 0 -27 9 -44 20 -16 11
-41 20 -55 20 -15 0 -30 4 -36 10 -10 10 -98 43 -177 65 -58 17 -107 50 -107
74 0 9 9 34 20 56 12 23 20 59 20 86 0 26 7 66 16 90 10 27 16 74 15 124 0 46
4 82 10 86 6 3 39 -2 72 -13 34 -11 145 -46 247 -78z m950 -304 c201 -65 369
-115 403 -121 21 -3 52 -14 70 -24 18 -10 70 -31 117 -46 47 -15 89 -31 94
-35 8 -8 -58 -80 -289 -318 l-110 -114 -65 7 c-36 3 -85 14 -110 24 -72 29
-142 52 -189 62 -25 5 -52 16 -61 24 -9 8 -26 15 -38 15 -12 0 -41 9 -64 19
-24 10 -70 29 -103 41 -33 13 -65 28 -72 34 -13 12 -11 14 227 334 19 26 46
64 60 84 14 21 32 38 40 38 8 0 49 -11 90 -24z m-1255 -266 c22 -11 49 -20 60
-20 11 0 29 -6 40 -14 11 -7 35 -17 54 -21 19 -4 48 -16 65 -26 17 -10 39 -19
49 -19 9 0 34 -9 54 -20 21 -11 43 -20 50 -20 7 0 27 -9 45 -20 18 -11 42 -20
54 -20 11 0 28 -6 39 -13 25 -19 15 -52 -34 -107 -42 -48 -149 -180 -191 -236
-14 -19 -35 -37 -46 -40 -61 -16 -237 130 -297 246 -20 40 -37 83 -37 95 0 13
-5 36 -10 51 -15 38 -31 164 -25 186 9 25 79 24 130 -2z m827 -320 c18 -11 41
-20 50 -20 10 0 32 -9 50 -20 18 -11 43 -20 56 -20 13 0 40 -9 60 -19 43 -22
90 -39 147 -53 22 -6 59 -19 83 -29 23 -10 53 -19 66 -19 36 0 56 -10 56 -28
0 -17 -117 -132 -135 -132 -7 0 -20 10 -31 21 -10 12 -38 35 -62 51 -40 28
-48 29 -120 26 -42 -3 -93 -10 -112 -17 -19 -7 -47 -17 -62 -22 -16 -5 -40
-13 -55 -18 -116 -38 -140 -42 -268 -39 -89 2 -130 7 -130 14 0 7 34 49 75 95
41 45 97 110 124 143 82 104 85 106 133 106 25 0 56 -8 75 -20z m206 -1828
c73 -7 102 -24 102 -58 0 -15 -67 -101 -149 -190 -36 -40 -129 -141 -206 -225
-77 -84 -185 -198 -241 -253 -55 -56 -114 -119 -129 -141 -16 -22 -34 -44 -41
-50 -6 -5 -25 -30 -42 -55 -16 -25 -43 -60 -60 -77 -16 -18 -37 -44 -46 -58
-33 -50 -88 -105 -106 -105 -25 0 -30 19 -30 123 0 51 -7 124 -15 162 -25 118
-29 197 -13 231 9 16 18 48 21 72 3 24 12 51 21 61 9 10 16 30 16 45 0 16 9
45 19 65 10 20 31 62 47 93 15 32 35 65 46 74 10 10 18 23 18 31 0 28 139 149
213 184 176 86 293 100 575 71z"/>
<path d="M17784 11927 c-3 -8 -4 -49 -2 -93 l3 -78 35 -8 c57 -12 60 -7 60 86
l0 84 -31 11 c-42 14 -59 14 -65 -2z m49 -19 c2 -7 2 -28 -1 -46 -3 -24 1 -41
17 -62 28 -38 27 -42 -11 -38 l-33 3 -3 78 c-2 62 0 77 12 77 8 0 16 -6 19
-12z"/>
<path d="M17714 11630 c0 -74 1 -105 3 -67 2 37 2 97 0 135 -2 37 -3 6 -3 -68z"/>
<path d="M8467 11733 c-4 -3 -7 -18 -7 -32 0 -21 22 -47 98 -118 98 -91 213
-231 238 -289 7 -17 20 -36 28 -44 9 -7 16 -20 16 -29 0 -21 50 -71 71 -71 19
0 39 20 39 39 0 13 -31 79 -79 166 -9 17 -25 39 -36 51 -11 11 -57 64 -103
117 -80 93 -95 107 -195 181 -48 37 -59 41 -70 29z"/>
<path d="M8217 11473 c-29 -29 36 -114 255 -335 100 -101 138 -123 166 -95 19
19 12 27 -229 275 -148 151 -175 173 -192 155z"/>
<path d="M18030 11395 c0 -80 -2 -77 55 -78 67 -1 65 -3 65 78 l0 75 -60 0
-60 0 0 -75z m42 53 c-7 -7 -12 -29 -12 -50 0 -37 1 -38 35 -38 34 0 35 1 35
38 0 21 -6 44 -12 51 -11 10 -9 11 5 5 15 -5 17 -16 15 -63 l-3 -56 -45 0 -45
0 -3 49 c-4 59 2 76 25 76 13 0 14 -3 5 -12z"/>
<path d="M6037 11229 c-3 -12 -3 -44 0 -71 5 -45 4 -49 -13 -47 -32 5 -224
-23 -230 -33 -14 -22 16 -25 111 -11 55 8 130 14 168 13 l67 0 0 29 c0 84 -86
184 -103 120z"/>
<path d="M8073 11183 c-27 -10 -8 -42 82 -136 81 -85 97 -98 122 -95 31 3 42
30 21 51 -7 8 -47 53 -88 100 -75 86 -94 98 -137 80z"/>
<path d="M15049 11126 c-4 -4 -51 -13 -105 -20 -122 -17 -210 -34 -249 -48
-16 -6 -50 -13 -75 -15 -25 -2 -58 -10 -75 -18 -64 -28 -141 -55 -159 -55 -10
0 -30 -6 -44 -14 -64 -34 -114 -56 -127 -56 -7 0 -20 -6 -27 -13 -7 -7 -33
-24 -58 -37 -25 -14 -63 -38 -85 -54 -98 -73 -294 -264 -350 -342 -22 -30 -59
-80 -82 -111 -24 -31 -43 -62 -43 -69 0 -6 -7 -17 -15 -24 -26 -22 -17 -28 63
-35 42 -4 95 -13 117 -20 90 -29 91 -29 118 18 14 23 37 53 51 66 14 14 26 30
26 36 0 27 217 229 309 287 37 24 76 49 86 56 36 22 204 102 217 102 7 0 22 7
32 15 11 8 33 15 48 15 16 0 46 9 68 20 22 11 52 20 68 20 16 0 46 7 65 15 20
8 57 15 82 15 26 0 56 5 68 12 32 17 240 31 482 32 172 1 220 -2 267 -17 31
-9 88 -17 127 -17 44 0 94 -7 129 -19 31 -10 82 -22 112 -26 30 -4 74 -16 97
-26 23 -10 55 -19 71 -19 17 0 49 -9 73 -20 24 -11 53 -20 64 -20 11 0 38 -9
60 -20 22 -11 47 -19 55 -20 8 0 30 -9 48 -20 18 -11 41 -20 51 -20 16 0 73
-22 166 -65 17 -7 41 -17 55 -21 22 -6 62 -24 240 -106 25 -12 52 -25 60 -30
8 -4 26 -13 40 -18 14 -6 32 -14 40 -20 8 -5 34 -18 57 -30 23 -12 58 -34 79
-51 20 -16 41 -29 46 -29 35 0 238 -184 238 -215 0 -11 -7 -74 -15 -140 -20
-163 -22 -151 34 -180 118 -59 319 -91 521 -82 135 6 202 20 323 69 l78 31 -5
46 c-9 64 -42 525 -61 826 -8 138 -18 274 -21 302 l-5 53 -24 -16 c-33 -21
-45 -11 -45 39 0 58 -9 68 -53 60 l-37 -6 0 -66 c0 -39 -5 -72 -12 -79 -15
-15 -246 -16 -354 -1 -68 9 -199 43 -247 64 -13 5 -17 3 -15 -11 6 -43 -18
-533 -26 -541 -2 -2 -16 3 -32 11 -16 8 -48 22 -72 32 -23 9 -47 23 -53 30
-10 12 -293 154 -404 204 -22 9 -60 27 -85 38 -25 11 -83 34 -130 52 -539 198
-717 260 -751 260 -11 0 -44 6 -72 14 -74 21 -1002 59 -1018 42z m3347 -80 c3
-13 4 -38 2 -57 -2 -26 -9 -36 -30 -43 -36 -13 -49 2 -21 21 19 13 22 21 16
59 -5 36 -3 44 10 44 9 0 19 -11 23 -24z"/>
<path d="M7857 11003 c-13 -12 -7 -53 13 -85 11 -18 20 -41 20 -50 0 -10 9
-22 20 -28 26 -14 60 3 60 30 0 25 -34 103 -55 123 -17 17 -46 22 -58 10z"/>
<path d="M4402 10965 c0 -16 2 -22 5 -12 2 9 2 23 0 30 -3 6 -5 -1 -5 -18z"/>
<path d="M5352 10965 c0 -16 2 -22 5 -12 2 9 2 23 0 30 -3 6 -5 -1 -5 -18z"/>
<path d="M7647 10793 c-4 -3 -7 -32 -7 -63 0 -65 12 -82 49 -69 22 9 23 13 18
60 -4 28 -12 57 -18 65 -12 15 -31 18 -42 7z"/>
<path d="M7373 10544 c-8 -22 17 -64 38 -64 28 0 41 33 23 58 -18 26 -52 29
-61 6z"/>
<path d="M12595 10515 l-50 -13 86 5 c93 6 149 -3 263 -43 83 -29 90 -29 51
-5 -39 25 -163 58 -240 65 -35 3 -81 -1 -110 -9z"/>
<path d="M5380 10478 c0 -13 5 -30 10 -38 7 -11 10 -7 10 17 0 17 -4 35 -10
38 -6 3 -10 -4 -10 -17z"/>
<path d="M12729 10368 c-114 -40 -169 -100 -169 -185 0 -13 -2 -23 -5 -23 -2
0 -33 14 -67 32 -83 42 -150 47 -244 19 -39 -11 -79 -30 -89 -41 -24 -27 -1
-27 32 0 25 19 83 27 97 13 4 -4 24 -6 44 -5 51 4 147 -20 210 -52 30 -15 92
-64 138 -108 76 -73 89 -82 137 -90 54 -8 132 2 190 27 139 58 198 218 127
342 -45 79 -59 85 -208 90 -114 3 -134 1 -193 -19z"/>
<path d="M16149 10370 c-9 -5 -52 -14 -96 -18 -44 -5 -89 -14 -101 -21 -11 -6
-37 -11 -57 -11 -20 0 -49 -7 -66 -15 -16 -9 -48 -20 -72 -24 -87 -18 -199
-69 -229 -103 -11 -12 -18 -36 -18 -62 0 -58 50 -128 182 -255 60 -58 118
-120 130 -139 40 -65 50 -157 33 -314 -7 -61 -5 -71 18 -110 45 -77 80 -99
186 -115 65 -10 171 17 241 62 72 47 84 58 138 130 38 52 69 134 81 220 8 62
41 108 128 177 95 75 113 121 113 286 0 108 -3 129 -20 158 -12 18 -31 36 -43
40 -12 3 -40 21 -62 39 -23 18 -56 38 -75 43 -19 6 -53 18 -75 26 -46 17 -309
22 -336 6z m366 -105 c28 -13 55 -25 61 -25 21 0 55 -48 70 -95 20 -67 18
-110 -8 -183 -20 -54 -34 -72 -100 -133 -43 -39 -78 -76 -78 -84 0 -7 -9 -32
-20 -56 -11 -24 -20 -57 -20 -73 0 -41 -46 -152 -78 -188 -57 -64 -181 -147
-255 -172 -36 -12 -79 6 -108 47 l-28 39 2 172 c2 164 1 173 -20 200 -13 16
-23 34 -23 40 0 19 -149 189 -232 265 -32 29 -58 61 -58 70 0 36 124 101 194
101 22 0 50 7 60 15 11 8 40 15 66 15 25 0 71 9 103 20 31 11 71 20 89 21 18
0 49 7 68 14 22 8 79 14 150 14 103 1 120 -2 165 -24z"/>
<path d="M7515 10351 c-3 -5 9 -11 27 -13 31 -3 33 -5 33 -43 0 -45 30 -109
46 -99 7 4 7 10 0 17 -19 19 -14 118 7 133 15 12 9 13 -45 14 -34 0 -64 -4
-68 -9z"/>
<path d="M5240 10339 c-36 -4 -96 -9 -133 -10 -45 -2 -66 -6 -64 -14 3 -6 -26
-32 -64 -59 l-68 -48 0 -422 c0 -343 -2 -421 -13 -421 -7 0 -15 14 -17 30 -4
29 -4 30 -10 5 -6 -21 -13 -25 -46 -25 -36 0 -40 3 -43 28 -3 22 1 30 17 34
17 4 21 13 21 49 0 35 -3 44 -17 44 -16 0 -18 16 -20 177 -2 146 -5 179 -18
186 -8 4 -15 15 -15 22 0 8 -9 15 -20 15 -11 0 -20 6 -20 14 0 8 -13 17 -30
21 -16 4 -36 15 -43 26 -18 25 -89 49 -141 48 -57 0 -130 -30 -135 -54 -2 -11
-8 -23 -13 -26 -18 -11 -49 3 -58 26 -8 20 -13 22 -51 15 -60 -11 -78 -50 -23
-50 54 0 64 -15 64 -91 0 -48 5 -78 16 -95 15 -23 15 -26 0 -43 -10 -11 -16
-25 -15 -33 1 -7 -1 -25 -5 -40 -4 -15 -3 -34 2 -44 6 -10 6 -28 2 -43 -5 -14
-11 -47 -15 -73 -5 -41 -9 -47 -35 -53 -19 -4 -30 -13 -32 -28 -2 -16 -11 -23
-30 -25 -24 -3 -28 -8 -28 -34 0 -17 -6 -36 -14 -42 -8 -6 -18 -36 -21 -68 -6
-49 -5 -57 11 -66 21 -10 164 -36 168 -31 2 2 6 32 9 67 7 60 6 63 -19 72 -46
18 -64 13 -64 -17 0 -40 -11 -74 -21 -67 -5 3 -6 23 -3 45 5 26 2 44 -7 56
-13 15 -11 16 22 10 36 -5 37 -5 46 36 7 34 13 41 28 39 11 -1 88 -12 170 -23
83 -11 156 -23 164 -28 12 -6 14 -63 12 -370 l-3 -363 98 3 c86 4 99 2 102
-13 5 -26 -25 -35 -133 -39 -100 -4 -100 -4 -100 20 0 15 -8 27 -23 32 -12 5
-22 15 -22 23 0 11 -6 13 -30 6 -19 -5 -48 -3 -87 7 -93 24 -107 35 -122 93
-16 61 -26 61 -12 1 7 -35 6 -43 -6 -48 -17 -7 -351 74 -370 90 -7 5 -13 21
-13 36 0 42 -20 102 -36 108 -28 11 -85 -7 -94 -30 -5 -12 -9 -16 -9 -9 -1 7
-6 10 -12 7 -7 -5 -8 -35 -4 -92 7 -84 7 -85 -15 -81 -34 5 -46 49 -30 111 11
45 11 50 -9 68 -12 11 -21 30 -21 42 -1 60 -8 67 -75 67 -76 0 -125 -15 -125
-40 0 -10 8 -21 17 -24 14 -6 15 -9 4 -16 -8 -4 -11 -15 -8 -24 4 -10 1 -19
-8 -22 -8 -4 -12 -10 -9 -15 3 -5 -4 -9 -15 -9 -11 0 -24 6 -28 14 -4 8 -17
15 -28 17 -13 3 -22 16 -27 43 -5 22 -10 41 -12 43 -4 4 -178 -24 -210 -33
-10 -3 -14 -9 -10 -13 5 -5 83 -32 174 -61 91 -29 183 -58 205 -65 40 -13 59
-35 30 -35 -10 0 -15 -7 -13 -17 2 -12 23 -25 58 -36 86 -29 479 -144 535
-157 28 -7 81 -21 118 -32 65 -20 68 -20 81 -3 11 16 18 17 42 7 16 -6 50 -13
76 -17 26 -3 50 -11 54 -16 3 -6 12 -8 19 -5 19 7 85 -13 85 -25 0 -7 -19 -9
-47 -7 -43 3 -48 1 -51 -20 -3 -18 4 -26 34 -38 36 -15 38 -15 54 6 l17 22 21
-27 c12 -15 22 -31 22 -36 0 -5 15 -16 33 -25 17 -9 35 -23 40 -30 4 -7 24
-16 45 -20 20 -4 42 -10 47 -14 15 -12 48 -16 61 -7 7 4 43 -2 80 -13 189 -55
925 -251 953 -254 10 -1 18 20 26 69 7 39 10 73 6 77 -3 4 -41 16 -84 27 -150
39 -187 53 -187 73 0 21 -4 22 -30 8 -15 -8 -18 -7 -14 3 2 7 -7 24 -21 37
-24 23 -35 70 -15 70 5 0 17 -11 26 -25 13 -20 19 -23 31 -13 12 10 11 14 -6
31 -14 14 -35 21 -74 22 -30 2 -69 6 -86 10 -28 6 -31 4 -31 -19 0 -13 5 -28
10 -31 6 -4 8 -14 6 -23 -3 -10 1 -30 9 -46 16 -30 20 -82 7 -89 -4 -3 -19 -3
-35 0 -22 4 -27 11 -27 35 0 55 -23 74 -122 99 l-91 23 7 66 c3 36 11 99 16
140 5 41 13 105 16 142 7 66 6 68 -20 77 -14 6 -26 12 -26 15 0 13 122 39 220
46 181 14 210 20 210 42 0 10 7 52 15 93 16 74 16 75 -10 130 -14 31 -25 58
-25 61 0 3 -7 22 -16 42 -44 99 -53 119 -58 138 -11 36 -40 54 -114 71 -58 14
-72 21 -76 39 -9 33 2 51 35 58 25 5 29 10 29 41 0 19 -4 35 -10 35 -5 0 -10
-4 -10 -10 0 -14 -37 -13 -42 1 -2 7 -36 14 -81 17 -59 3 -78 8 -81 21 -3 9
-21 127 -41 263 -33 236 -47 315 -60 350 -5 12 11 28 54 58 58 39 67 41 149
46 48 3 98 8 112 11 l25 6 -25 7 c-31 10 -77 10 -160 -1z m-784 -571 c10 -15
-16 -28 -58 -28 -39 0 -56 25 -21 32 41 8 73 6 79 -4z m-126 -19 c0 -6 -4 -7
-10 -4 -5 3 -10 11 -10 16 0 6 5 7 10 4 6 -3 10 -11 10 -16z m215 2 c10 -17
-12 -21 -25 -6 -10 12 -10 15 3 15 9 0 18 -4 22 -9z m25 -167 c0 -8 -5 -12
-10 -9 -6 4 -8 11 -5 16 9 14 15 11 15 -7z m690 -70 c0 -13 9 -29 20 -36 28
-18 25 -38 -5 -38 -31 0 -49 39 -40 82 8 33 25 28 25 -8z m-593 -6 c-3 -8 -6
-5 -6 6 -1 11 2 17 5 13 3 -3 4 -12 1 -19z m56 15 c-7 -2 -21 -2 -30 0 -10 3
-4 5 12 5 17 0 24 -2 18 -5z m-1198 -644 c11 -17 -1 -21 -15 -4 -8 9 -8 15 -2
15 6 0 14 -5 17 -11z m95 -93 c0 -3 -4 -8 -10 -11 -5 -3 -10 -1 -10 4 0 6 5
11 10 11 6 0 10 -2 10 -4z m40 -12 c0 -9 -5 -14 -12 -12 -18 6 -21 28 -4 28 9
0 16 -7 16 -16z m1243 -256 c20 -6 37 -17 37 -24 0 -26 -105 -174 -123 -174
-7 1 -41 9 -77 18 -77 21 -84 35 -45 95 70 107 73 110 124 102 25 -3 63 -11
84 -17z"/>
<path d="M12127 10280 c-55 -62 -72 -123 -60 -215 l9 -60 7 78 c7 82 33 149
83 215 39 50 11 38 -39 -18z"/>
<path d="M4655 10310 c-88 -3 -155 -8 -150 -10 6 -3 85 -5 177 -5 128 0 168 3
168 13 0 6 -8 11 -17 10 -10 -1 -90 -5 -178 -8z"/>
<path d="M5400 10205 c0 -19 5 -35 10 -35 6 0 10 16 10 35 0 19 -4 35 -10 35
-5 0 -10 -16 -10 -35z"/>
<path d="M4491 10183 c0 -10 4 -27 9 -38 7 -17 9 -15 9 12 1 17 -3 35 -9 38
-5 3 -10 -2 -9 -12z"/>
<path d="M12178 10120 c-39 -21 -53 -36 -41 -43 5 -3 26 10 48 29 46 39 45 41
-7 14z"/>
<path d="M13433 10098 c32 -40 67 -99 67 -114 0 -3 -7 -4 -14 -1 -10 4 -13 1
-9 -9 3 -8 12 -13 19 -10 7 3 18 -3 23 -12 21 -35 10 1 -15 51 -41 83 -78 137
-92 137 -8 0 1 -18 21 -42z"/>
<path d="M13357 10056 c-4 -10 -1 -13 8 -10 8 3 28 -4 45 -16 17 -12 33 -20
36 -18 4 5 -67 58 -78 58 -3 0 -8 -7 -11 -14z"/>
<path d="M17120 10029 c-37 -20 -110 -86 -110 -100 0 -4 -12 -22 -27 -40 -27
-31 -28 -38 -28 -135 0 -88 3 -105 20 -124 61 -68 197 -108 306 -91 67 11 93
29 122 84 19 34 19 35 -7 105 -14 39 -37 88 -51 109 -13 21 -32 49 -42 63 -21
31 -135 150 -143 149 -3 -1 -21 -10 -40 -20z m80 -167 c69 -70 126 -173 110
-201 -21 -40 -100 -51 -181 -25 -63 21 -104 75 -96 126 12 77 61 158 95 158 8
0 40 -26 72 -58z"/>
<path d="M12312 9983 c-24 -83 -35 -159 -26 -176 7 -13 15 12 28 93 19 113 18
150 -2 83z"/>
<path d="M14026 9997 c3 -10 9 -15 12 -12 3 3 0 11 -7 18 -10 9 -11 8 -5 -6z"/>
<path d="M5725 9978 c-66 -11 -126 -25 -133 -30 -7 -6 -10 -20 -8 -32 3 -12 0
-9 -6 7 -12 27 -28 37 -28 17 0 -16 62 -122 68 -116 2 3 -3 17 -12 31 -9 14
-12 25 -7 25 5 0 18 -16 30 -35 11 -19 26 -35 33 -35 31 0 174 34 185 44 14
13 20 123 7 135 -5 4 -63 -1 -129 -11z"/>
<path d="M12082 9975 c0 -16 2 -22 5 -12 2 9 2 23 0 30 -3 6 -5 -1 -5 -18z"/>
<path d="M13270 9956 c0 -8 4 -17 9 -20 5 -4 7 3 4 14 -6 23 -13 26 -13 6z"/>
<path d="M13759 9956 c-53 -19 -95 -52 -130 -102 -17 -25 -36 -43 -42 -41 -7
2 -18 23 -26 46 -10 31 -17 41 -28 36 -9 -3 -22 0 -29 6 -14 12 -70 -16 -124
-61 -23 -19 -23 -20 -2 -10 18 9 22 8 22 -6 0 -27 -60 -385 -66 -396 -4 -5
-37 -6 -84 -2 l-78 6 -7 -32 c-4 -18 -7 -80 -8 -139 0 -115 14 -164 53 -176
11 -3 20 -11 20 -16 0 -5 0 -12 1 -16 0 -8 -97 -42 -122 -43 -9 0 -24 -9 -34
-20 -23 -26 -39 -26 -32 0 9 34 -11 90 -32 90 -23 0 -37 17 -46 52 -9 36 2 53
23 36 13 -11 14 -11 10 2 -2 8 -17 16 -33 18 l-28 4 6 -77 c6 -72 42 -174 65
-189 5 -3 21 3 35 14 39 31 103 56 202 80 72 17 112 21 212 18 77 -2 119 0
113 7 -14 13 -12 78 6 170 8 44 19 152 23 241 5 89 13 169 18 178 7 13 14 9
41 -26 17 -23 57 -62 87 -88 62 -53 119 -70 230 -70 l63 0 46 56 46 56 0 99
c0 122 -11 150 -80 212 -41 37 -69 52 -134 72 -93 28 -107 29 -157 11z"/>
<path d="M12091 9925 c1 -19 18 -51 18 -35 0 8 -4 22 -9 30 -5 8 -9 11 -9 5z"/>
<path d="M13176 9868 c3 -15 1 -42 -5 -59 -9 -27 -9 -30 4 -19 17 14 20 68 5
90 -8 11 -9 8 -4 -12z"/>
<path d="M12121 9814 c0 -11 3 -14 6 -6 3 7 2 16 -1 19 -3 4 -6 -2 -5 -13z"/>
<path d="M12186 9822 c-6 -10 22 -97 29 -90 2 2 -2 25 -9 52 -7 27 -16 44 -20
38z"/>
<path d="M4062 9721 c-6 -4 -14 -32 -18 -63 l-6 -55 36 -7 c20 -4 41 -4 46 -1
6 3 10 1 10 -4 0 -6 18 -11 39 -11 l39 0 4 58 c6 80 3 85 -46 80 -23 -3 -53
-1 -67 3 -15 4 -31 4 -37 0z"/>
<path d="M12222 9700 c0 -14 2 -19 5 -12 2 6 2 18 0 25 -3 6 -5 1 -5 -13z"/>
<path d="M12693 9664 c-33 -14 -75 -69 -88 -114 -6 -20 0 -16 33 21 22 25 59
53 81 63 38 17 42 18 65 2 14 -9 28 -16 31 -16 12 0 4 21 -15 40 -23 23 -61
25 -107 4z"/>
<path d="M13068 9666 c-16 -12 -12 -15 40 -34 55 -20 56 -20 33 -2 -13 11 -29
20 -36 20 -8 0 -15 6 -17 14 -2 12 -6 12 -20 2z"/>
<path d="M12994 9605 c-18 -13 -17 -14 18 -15 45 0 94 -38 108 -83 8 -28 9
-25 7 25 -2 31 -9 64 -16 72 -17 20 -91 21 -117 1z"/>
<path d="M4035 9516 c-4 -30 -4 -59 0 -65 8 -13 35 -15 35 -2 0 5 9 11 20 14
16 4 20 14 20 50 0 46 -10 57 -50 57 -15 0 -20 -11 -25 -54z"/>
<path d="M17683 9545 c-44 -19 -53 -42 -53 -133 0 -100 -10 -202 -21 -202 -4
0 -27 15 -52 34 l-44 33 -28 -181 c-32 -208 -37 -226 -64 -226 -20 0 -429
-144 -440 -156 -12 -12 59 11 227 73 95 35 187 66 203 70 28 5 29 4 29 -31 0
-35 2 -37 88 -80 48 -24 130 -57 182 -74 96 -31 284 -62 372 -62 61 0 61 -12
1 -27 -27 -7 -115 -31 -198 -53 -364 -98 -337 -93 -404 -75 -130 33 -550 185
-601 217 -10 7 -22 10 -25 7 -3 -4 -10 -80 -15 -170 -6 -90 -13 -180 -16 -199
-4 -24 -3 -32 4 -25 5 6 15 88 21 184 6 96 12 175 14 177 2 2 60 -18 128 -44
95 -38 425 -149 527 -178 10 -3 12 -38 7 -171 -4 -93 -11 -183 -16 -202 -10
-39 -3 -57 15 -42 9 7 15 57 20 148 3 76 9 166 13 200 l6 62 56 17 c31 9 142
38 247 65 106 27 204 53 219 59 60 23 59 29 51 -185 -7 -174 -6 -195 8 -195
14 0 16 17 16 118 0 66 3 159 6 208 9 117 7 119 -128 128 -191 13 -351 55
-494 130 l-79 41 2 45 c2 49 51 381 57 387 2 2 25 -10 52 -26 38 -25 59 -31
101 -31 45 0 53 -3 53 -19 0 -20 9 -22 170 -38 124 -13 438 -9 500 6 107 26
240 105 240 142 0 18 -5 16 -32 -14 -35 -36 -111 -79 -187 -104 -95 -31 -601
-27 -633 5 -5 5 -3 72 6 153 8 79 12 157 9 172 -3 17 -19 37 -42 52 -41 29
-37 28 -78 10z m47 -26 c0 -11 -4 -17 -10 -14 -5 3 -10 13 -10 21 0 8 5 14 10
14 6 0 10 -9 10 -21z m-54 -11 c-10 -14 -16 -44 -16 -83 0 -87 -12 -225 -19
-221 -3 2 -4 69 -1 149 4 101 9 149 19 161 20 24 34 19 17 -6z m102 0 c7 -7
12 -40 12 -77 0 -82 -20 -243 -31 -255 -12 -13 -12 -4 7 152 14 121 14 136 0
158 -9 13 -16 26 -16 29 0 9 16 5 28 -7z"/>
<path d="M12374 9524 c3 -9 6 -22 6 -30 0 -8 5 -14 10 -14 6 0 10 14 10 30 0
21 -5 30 -16 30 -11 0 -14 -5 -10 -16z"/>
<path d="M12700 9463 c-17 -18 -18 -23 -5 -12 30 24 51 29 65 16 10 -9 11 -9
8 3 -8 26 -42 22 -68 -7z"/>
<path d="M12952 9438 c-20 -20 -13 -32 7 -14 64 58 125 -84 126 -291 0 -70 3
-106 9 -96 13 24 0 230 -19 293 -30 97 -85 146 -123 108z"/>
<path d="M12642 9341 c-18 -57 -14 -186 7 -273 24 -101 68 -158 121 -155 35 2
35 2 32 46 -3 47 -31 123 -39 104 -7 -19 -30 -16 -53 7 -21 21 -17 50 7 50 13
0 13 3 2 16 -8 10 -22 14 -40 10 -19 -3 -29 0 -33 10 -9 24 -7 124 5 173 12
55 6 64 -9 12z"/>
<path d="M3740 9301 c-39 -8 -32 -13 49 -30 60 -13 58 -13 63 14 2 17 -3 20
-37 21 -22 1 -56 -1 -75 -5z"/>
<path d="M12842 9260 c0 -14 2 -19 5 -12 2 6 2 18 0 25 -3 6 -5 1 -5 -13z"/>
<path d="M12852 9190 c0 -19 2 -27 5 -17 2 9 2 25 0 35 -3 9 -5 1 -5 -18z"/>
<path d="M17630 9136 c0 -17 18 -31 48 -39 30 -7 52 1 52 19 0 10 -8 12 -31 7
-24 -4 -34 -2 -41 10 -11 21 -28 22 -28 3z"/>
<path d="M15287 9123 c-19 -18 1 -46 91 -128 88 -82 127 -123 225 -238 29 -35
35 -37 60 -28 36 14 34 37 -8 90 -19 24 -35 47 -35 51 0 13 -197 202 -241 232
-40 27 -78 36 -92 21z"/>
<path d="M14453 9113 c-7 -2 -13 -10 -13 -17 0 -18 50 -62 90 -81 19 -9 67
-36 105 -60 39 -25 77 -48 85 -52 29 -13 235 -156 295 -204 33 -27 79 -63 103
-81 107 -82 303 -288 415 -438 49 -65 97 -68 97 -6 0 7 -32 62 -71 122 -55 83
-101 138 -198 232 -69 68 -153 141 -186 164 -33 22 -83 58 -110 79 -28 21 -61
44 -75 51 -14 7 -52 31 -85 52 -120 79 -159 102 -265 158 -19 10 -58 31 -85
47 -57 32 -85 41 -102 34z"/>
<path d="M17616 9082 c-18 -29 47 -65 89 -48 28 10 17 28 -14 21 -22 -5 -34
-1 -49 15 -11 12 -23 17 -26 12z"/>
<path d="M18627 9044 c-14 -14 -7 -25 13 -22 12 2 21 8 21 13 0 12 -24 18 -34
9z"/>
<path d="M3768 9009 c-52 -42 -50 -61 5 -57 42 3 42 3 45 46 2 23 0 42 -5 42
-4 -1 -25 -14 -45 -31z"/>
<path d="M13601 9027 c2 -1 13 -9 24 -17 19 -14 19 -14 6 3 -7 9 -18 17 -24
17 -6 0 -8 -1 -6 -3z"/>
<path d="M17610 9001 c0 -22 8 -29 50 -41 22 -6 34 -5 45 7 19 18 9 39 -11 22
-18 -15 -64 -3 -64 16 0 8 -4 15 -10 15 -5 0 -10 -9 -10 -19z"/>
<path d="M18594 8965 c-18 -15 -18 -15 5 -13 14 2 26 9 29 16 5 17 -10 15 -34
-3z"/>
<path d="M13455 8960 c-11 -4 -53 -5 -93 -4 -41 2 -83 -1 -94 -7 -15 -8 -19
-8 -14 0 4 7 -1 11 -13 11 -11 0 -23 -5 -26 -10 -4 -6 -15 -8 -25 -5 -12 4
-35 -7 -66 -30 -33 -26 -49 -33 -55 -24 -4 8 -16 -2 -33 -30 -32 -51 -53 -52
-99 -6 -19 19 -43 35 -53 35 -15 0 -12 -5 12 -25 38 -29 58 -75 51 -112 -5
-26 -4 -26 9 -8 8 10 14 22 14 27 0 4 5 8 10 8 6 0 10 -6 10 -14 0 -32 198
-154 333 -205 36 -14 34 -24 -7 -39 -18 -7 -64 -36 -101 -65 -102 -79 -134
-101 -200 -137 -86 -48 -132 -70 -148 -70 -7 0 -22 -7 -33 -16 -18 -14 -16
-15 31 -10 28 3 64 8 81 11 26 6 32 3 36 -13 4 -14 22 -25 61 -36 73 -21 115
-20 165 4 34 16 43 28 52 60 9 32 15 40 34 40 18 0 26 7 31 28 3 15 13 34 20
42 17 19 47 98 48 125 0 11 -3 27 -7 36 -6 13 0 17 28 22 24 4 63 29 125 82
50 42 94 81 98 88 17 26 30 77 21 77 -7 0 -8 15 -4 39 5 36 3 41 -39 80 -32
30 -53 41 -75 41 -17 0 -39 4 -48 9 -9 5 -26 5 -37 1z m-414 -692 c1 -7 1 -17
-1 -23 -1 -5 4 -4 11 3 20 19 35 14 48 -15 10 -21 9 -28 -1 -34 -19 -12 -23
-11 -68 12 -43 23 -51 42 -22 58 23 14 32 13 33 -1z m194 -13 c0 -13 -92 -62
-100 -53 -13 12 56 69 78 66 12 -2 22 -7 22 -13z"/>
<path d="M16103 8943 c-21 -8 -15 -51 7 -58 27 -8 40 1 40 30 0 17 -21 40 -33
34 -1 0 -8 -3 -14 -6z"/>
<path d="M17587 8936 c-3 -8 3 -22 13 -31 33 -30 115 -17 95 15 -5 8 -10 9
-18 1 -17 -17 -46 -13 -59 9 -15 24 -24 25 -31 6z"/>
<path d="M18195 8911 c-3 -5 -1 -12 4 -15 12 -8 41 3 41 15 0 12 -37 12 -45 0z"/>
<path d="M17583 8864 c-4 -11 2 -23 18 -35 29 -23 77 -25 86 -4 7 20 -6 33
-16 17 -10 -17 -61 -5 -61 13 0 22 -19 28 -27 9z"/>
<path d="M13687 8853 c-4 -3 -7 -13 -7 -22 1 -13 3 -13 11 2 11 19 8 33 -4 20z"/>
<path d="M18835 8781 c-55 -32 -112 -72 -128 -87 l-28 -29 24 -3 c17 -2 27
-13 35 -38 6 -20 6 -36 1 -40 -14 -8 -11 -34 5 -34 26 0 35 -87 13 -127 -12
-22 -74 -73 -137 -113 -28 -17 -30 -20 -10 -14 14 3 34 13 45 20 55 38 49 -14
-9 -82 -18 -22 -39 -50 -46 -64 -15 -30 -92 -117 -218 -247 -51 -53 -91 -97
-89 -99 4 -4 169 107 262 176 48 36 55 46 152 256 193 419 263 572 263 578 0
17 -45 0 -135 -53z"/>
<path d="M17560 8790 c0 -18 40 -50 63 -50 30 0 51 15 42 29 -4 8 -11 9 -18 3
-13 -11 -51 0 -62 17 -8 14 -25 14 -25 1z"/>
<path d="M18085 8760 c-4 -6 5 -10 19 -10 14 0 26 5 26 10 0 6 -9 10 -19 10
-11 0 -23 -4 -26 -10z"/>
<path d="M12725 8740 c3 -5 13 -10 21 -10 8 0 14 5 14 10 0 6 -9 10 -21 10
-11 0 -17 -4 -14 -10z"/>
<path d="M14223 8733 c-20 -7 -15 -38 10 -61 13 -12 27 -22 32 -22 12 0 171
-82 230 -119 28 -17 61 -36 75 -43 14 -6 43 -26 65 -43 22 -17 60 -44 84 -60
77 -52 281 -269 281 -299 0 -7 9 -21 20 -31 11 -10 20 -26 20 -35 0 -10 9 -29
20 -43 11 -14 20 -32 20 -40 0 -29 41 -68 69 -65 22 3 26 8 29 41 2 26 -3 45
-17 63 -12 15 -21 33 -21 41 0 8 -8 27 -17 41 -10 15 -22 34 -28 43 -110 176
-300 346 -515 463 -30 16 -73 40 -95 52 -77 44 -158 84 -169 84 -6 0 -27 8
-46 18 -19 11 -41 17 -47 15z"/>
<path d="M13695 8694 c17 -16 48 -55 69 -86 49 -73 57 -131 27 -200 -27 -64
-11 -62 19 2 33 71 24 152 -28 232 -20 32 -46 61 -57 64 -61 18 -61 18 -30
-12z"/>
<path d="M12645 8690 c-46 -30 -65 -60 -52 -82 17 -26 27 -22 27 10 0 27 15
52 32 52 4 0 8 -6 8 -14 0 -16 37 -42 74 -52 14 -3 26 -8 26 -10 0 -3 -15 -27
-34 -54 -39 -57 -52 -93 -60 -168 -4 -44 -2 -56 15 -73 32 -32 45 -9 20 32
-38 62 -19 145 49 222 18 21 31 39 29 41 -2 2 -19 11 -36 20 -34 17 -68 69
-58 86 10 16 -8 11 -40 -10z"/>
<path d="M18350 8680 c0 -5 9 -10 19 -10 11 0 23 5 26 10 4 6 -5 10 -19 10
-14 0 -26 -4 -26 -10z"/>
<path d="M18310 8630 c0 -5 11 -10 25 -10 14 0 25 5 25 10 0 6 -11 10 -25 10
-14 0 -25 -4 -25 -10z"/>
<path d="M16905 8570 c-3 -5 3 -18 15 -30 23 -23 90 -28 90 -7 0 9 -12 14 -31
14 -18 0 -37 7 -44 16 -14 19 -21 21 -30 7z"/>
<path d="M2960 8519 c-19 -5 -101 -20 -182 -34 -81 -14 -159 -30 -174 -35 -24
-9 -25 -13 -13 -25 18 -18 380 -215 395 -215 13 0 41 279 31 305 -7 16 -6 16
-57 4z"/>
<path d="M6604 8510 c-6 -6 -8 -24 -6 -41 4 -24 9 -29 26 -27 24 3 34 41 16
64 -15 17 -22 18 -36 4z"/>
<path d="M16904 8496 c-4 -10 -1 -24 7 -31 16 -16 68 -23 87 -11 22 13 12 26
-17 20 -21 -5 -34 0 -49 17 -19 20 -22 21 -28 5z"/>
<path d="M4390 8471 c0 -21 26 -36 36 -20 9 15 -3 39 -21 39 -8 0 -15 -9 -15
-19z"/>
<path d="M18555 8439 c-4 -6 -4 -13 -1 -16 8 -8 36 5 36 17 0 13 -27 13 -35
-1z"/>
<path d="M18668 8436 c-17 -12 -25 -36 -13 -36 12 0 55 33 55 41 0 13 -22 10
-42 -5z"/>
<path d="M16896 8422 c-11 -19 4 -37 41 -49 44 -14 63 -8 63 20 0 16 -3 18
-12 9 -18 -18 -45 -14 -67 9 -11 12 -22 16 -25 11z"/>
<path d="M6120 8390 c0 -6 5 -10 10 -10 6 0 10 -9 10 -20 0 -11 5 -20 10 -20
6 0 10 -3 10 -8 0 -4 -20 -7 -44 -6 -35 1 -45 -3 -49 -17 -3 -11 -2 -21 1 -23
19 -10 112 -29 118 -23 4 3 0 32 -8 63 -10 43 -19 59 -36 65 -13 5 -22 4 -22
-1z"/>
<path d="M14050 8357 c0 -31 18 -47 55 -47 16 0 44 -9 60 -20 17 -11 38 -20
48 -20 33 0 242 -108 302 -156 94 -74 173 -154 216 -216 22 -32 44 -58 49 -58
48 0 54 56 13 117 -81 119 -214 228 -363 298 -30 14 -73 35 -95 45 -22 11 -46
20 -54 20 -8 0 -32 8 -55 19 -44 20 -124 41 -156 41 -14 0 -20 -7 -20 -23z"/>
<path d="M6244 8361 c4 -5 1 -11 -5 -13 -6 -2 -11 -25 -12 -52 -2 -54 -3 -53
84 -70 l36 -6 6 45 c9 60 2 72 -44 79 -22 4 -37 11 -34 16 3 6 -3 10 -15 10
-12 0 -19 -4 -16 -9z"/>
<path d="M18300 8360 c0 -5 9 -10 19 -10 11 0 23 5 26 10 4 6 -5 10 -19 10
-14 0 -26 -4 -26 -10z"/>
<path d="M13860 8350 l-45 -7 58 -1 c41 -2 57 -6 57 -16 0 -29 -93 -34 -205
-12 -38 7 -79 17 -90 21 l-20 7 20 -14 c39 -29 147 -58 217 -58 72 0 78 4 92
63 7 30 4 31 -84 17z"/>
<path d="M6396 8334 c-3 -8 -9 -39 -12 -68 l-6 -53 66 -17 c37 -9 70 -14 74
-12 4 2 9 27 10 54 2 57 -17 87 -64 97 -16 4 -36 9 -45 11 -9 3 -19 -3 -23
-12z"/>
<path d="M5407 8323 c-10 -9 -8 -33 2 -33 5 0 11 9 14 20 5 20 -3 26 -16 13z"/>
<path d="M6600 8295 c0 -8 -8 -15 -19 -15 -15 0 -20 -10 -25 -45 -4 -25 -5
-49 -2 -54 6 -10 93 -31 124 -31 16 0 17 8 14 68 -2 37 -9 73 -14 80 -15 18
-78 16 -78 -3z"/>
<path d="M5420 8260 c0 -5 7 -10 15 -10 8 0 15 5 15 10 0 6 -7 10 -15 10 -8 0
-15 -4 -15 -10z"/>
<path d="M13221 8149 c-40 -16 -54 -31 -39 -40 8 -6 -1 -9 -24 -9 -21 0 -38
-5 -38 -11 0 -16 -68 -1 -101 22 -40 28 -44 23 -7 -10 26 -23 30 -31 20 -43
-9 -12 -6 -20 18 -43 17 -16 30 -34 30 -42 0 -12 30 -33 48 -33 5 0 19 21 31
48 32 69 51 104 71 127 38 44 36 52 -9 34z"/>
<path d="M13983 8024 c-7 -3 -13 -13 -13 -23 0 -12 28 -32 87 -62 97 -49 217
-136 341 -246 85 -75 101 -83 122 -59 14 18 -8 72 -48 112 -58 59 -221 170
-321 220 -109 54 -147 67 -168 58z"/>
<path d="M12878 7993 c7 -3 16 -2 19 1 4 3 -2 6 -13 5 -11 0 -14 -3 -6 -6z"/>
<path d="M12740 7943 c0 -5 28 -9 61 -9 39 -1 57 1 48 7 -17 11 -109 12 -109
2z"/>
<path d="M6685 7900 c-4 -6 -23 -10 -44 -8 -33 3 -36 1 -39 -25 -3 -23 1 -28
28 -33 46 -10 47 -24 1 -24 -39 0 -41 -2 -41 -30 0 -25 4 -30 35 -36 41 -7 47
-24 9 -24 -40 0 -28 -34 14 -38 39 -4 38 -5 51 118 10 87 4 129 -14 100z"/>
<path d="M13283 7903 c9 -2 25 -2 35 0 9 3 1 5 -18 5 -19 0 -27 -2 -17 -5z"/>
<path d="M12703 7873 c-47 -9 -20 -20 65 -26 48 -4 98 -10 111 -13 36 -11 17
15 -25 32 -32 13 -102 16 -151 7z"/>
<path d="M2803 7856 c9 -7 17 -16 17 -19 0 -14 169 -177 216 -208 28 -19 89
-65 136 -102 47 -38 133 -101 191 -140 109 -75 154 -122 239 -251 75 -115 69
-109 96 -91 24 17 28 48 12 89 -9 24 -8 25 17 15 14 -5 67 -34 117 -63 50 -29
131 -74 180 -100 49 -26 105 -58 125 -72 38 -26 67 -32 55 -12 -15 24 -13 59
5 91 25 44 25 99 0 131 -11 14 -27 26 -35 26 -9 0 -12 5 -8 12 5 8 2 9 -11 5
-20 -8 -48 10 -39 25 6 9 -28 48 -41 48 -3 0 -5 -9 -5 -20 0 -29 -16 -25 -37
10 -9 17 -24 30 -31 30 -8 0 -16 8 -19 19 -5 21 -88 66 -103 56 -8 -5 -7 -11
1 -21 15 -18 -1 -17 -25 1 -11 8 -14 15 -8 15 22 0 12 18 -18 34 -16 8 -30 10
-30 5 0 -14 -30 -10 -36 5 -3 8 -13 12 -25 9 -10 -3 -26 0 -34 7 -8 6 -18 9
-23 6 -5 -3 -29 12 -52 34 -24 22 -45 40 -47 40 -2 0 -14 9 -25 20 -14 13 -29
18 -41 14 -14 -4 -17 -3 -12 7 6 9 2 11 -15 6 -24 -6 -80 17 -80 33 0 5 -15
12 -34 16 -19 3 -37 12 -40 19 -2 7 -27 16 -54 20 -52 7 -122 53 -122 81 0 8
-9 14 -20 14 -11 0 -20 7 -20 15 0 14 -2 14 -23 0 -20 -13 -26 -13 -42 -1 -11
8 -25 12 -32 9 -7 -3 -13 2 -13 11 0 9 -7 16 -15 16 -9 0 -39 16 -68 36 -28
20 -62 40 -74 45 -13 5 -23 13 -23 18 0 5 -10 11 -22 14 -21 5 -21 5 -5 -7z
m1390 -846 c-3 -11 -7 -20 -9 -20 -2 0 -4 9 -4 20 0 11 4 20 9 20 5 0 7 -9 4
-20z"/>
<path d="M12891 7796 c10 -9 69 -36 69 -32 0 6 -55 36 -66 36 -4 0 -5 -2 -3
-4z"/>
<path d="M13224 7743 c13 -27 26 -55 30 -63 3 -8 3 -1 0 15 -7 39 -34 95 -45
95 -4 0 2 -21 15 -47z"/>
<path d="M13320 7786 c0 -9 101 -56 110 -51 3 2 28 -2 54 -10 51 -15 62 -9 54
32 -3 16 -15 18 -93 19 -50 0 -98 4 -107 8 -10 5 -18 5 -18 2z"/>
<path d="M13413 7623 c-33 -73 -50 -138 -33 -128 6 3 10 12 10 18 0 7 20 46
45 87 25 41 45 78 45 83 0 4 -8 7 -19 7 -13 0 -27 -19 -48 -67z"/>
<path d="M13261 7644 c0 -11 3 -14 6 -6 3 7 2 16 -1 19 -3 4 -6 -2 -5 -13z"/>
<path d="M13841 7626 c-19 -22 2 -51 54 -76 25 -12 80 -45 122 -74 107 -72
112 -74 135 -68 49 13 30 47 -67 117 -49 35 -204 115 -223 115 -5 0 -15 -6
-21 -14z"/>
<path d="M13271 7584 c0 -11 3 -14 6 -6 3 7 2 16 -1 19 -3 4 -6 -2 -5 -13z"/>
<path d="M13400 7379 c-1 -86 41 -209 72 -209 22 0 19 23 -12 76 -10 17 -21
46 -25 64 -4 18 -13 47 -21 64 -13 31 -13 31 -14 5z"/>
<path d="M11785 7353 c-92 -50 -135 -110 -135 -189 0 -30 4 -54 10 -54 5 0 37
18 70 39 78 51 173 83 221 75 28 -5 37 -2 43 11 9 24 -5 123 -19 135 -6 5 -36
12 -66 15 -49 5 -61 2 -124 -32z"/>
<path d="M13088 7230 c-6 -133 -12 -172 -38 -265 -32 -108 -50 -275 -31 -275
11 0 52 39 113 108 25 28 50 52 55 52 6 0 16 -12 23 -27 19 -39 23 -10 7 52
-11 45 -10 56 10 113 13 35 23 82 23 105 l-1 42 -15 -40 c-8 -22 -20 -56 -25
-75 -15 -50 -73 -152 -109 -190 -24 -25 -34 -30 -43 -21 -8 8 -7 18 6 40 32
55 47 149 46 301 -1 222 -13 269 -21 80z"/>
<path d="M6851 7354 c0 -11 3 -14 6 -6 3 7 2 16 -1 19 -3 4 -6 -2 -5 -13z"/>
<path d="M12164 7339 c-40 -16 -56 -30 -74 -60 -12 -22 -20 -42 -19 -43 2 -2
39 25 82 60 43 35 74 64 70 63 -5 0 -31 -9 -59 -20z"/>
<path d="M12716 7315 c-37 -33 -44 -54 -13 -42 11 4 63 78 54 77 -1 -1 -20
-16 -41 -35z"/>
<path d="M13783 7254 c-8 -22 45 -65 76 -61 33 3 36 18 11 50 -25 31 -77 38
-87 11z"/>
<path d="M12719 7240 c-13 -10 -19 -19 -13 -20 6 0 19 9 29 20 23 26 14 26
-16 0z"/>
<path d="M12746 7218 l-17 -33 20 24 c18 20 27 41 18 41 -1 0 -11 -15 -21 -32z"/>
<path d="M11938 7193 c7 -3 16 -2 19 1 4 3 -2 6 -13 5 -11 0 -14 -3 -6 -6z"/>
<path d="M12130 7158 c0 -3 10 -28 21 -55 12 -26 36 -85 55 -131 79 -193 167
-354 189 -346 17 7 13 15 -64 148 -62 105 -96 173 -137 269 -31 71 -64 131
-64 115z"/>
<path d="M3133 7113 c-7 -17 14 -38 99 -100 46 -34 149 -133 210 -202 39 -44
75 -53 98 -26 19 23 3 51 -77 136 -76 80 -260 209 -299 209 -14 0 -27 -7 -31
-17z"/>
<path d="M11826 7121 c-9 -14 7 -16 96 -12 56 2 76 6 63 11 -28 12 -153 12
-159 1z"/>
<path d="M12060 7116 c0 -2 8 -10 18 -17 15 -13 16 -12 3 4 -13 16 -21 21 -21
13z"/>
<path d="M11845 7073 c-16 -3 -34 -9 -40 -15 -7 -7 1 -8 25 -2 19 4 53 11 75
15 40 6 40 6 5 6 -19 0 -48 -2 -65 -4z"/>
<path d="M11660 7051 c0 -5 5 -13 10 -16 6 -3 10 -2 10 4 0 5 -4 13 -10 16 -5
3 -10 2 -10 -4z"/>
<path d="M13450 7016 c0 -9 119 -250 120 -241 0 6 -6 33 -14 60 -14 56 -106
212 -106 181z"/>
<path d="M11758 6993 c-21 -9 -38 -19 -38 -24 0 -18 17 -15 54 12 43 32 39 35
-16 12z"/>
<path d="M4435 6990 c3 -5 10 -10 16 -10 5 0 9 5 9 10 0 6 -7 10 -16 10 -8 0
-12 -4 -9 -10z"/>
<path d="M2747 6943 c-23 -23 23 -83 63 -83 19 0 162 -71 230 -114 120 -77
159 -103 210 -142 77 -60 109 -75 132 -63 10 5 18 16 18 24 0 16 -180 174
-225 197 -163 83 -228 116 -261 130 -140 61 -154 65 -167 51z"/>
<path d="M16825 6770 c-3 -5 -1 -10 4 -10 6 0 11 5 11 10 0 6 -2 10 -4 10 -3
0 -8 -4 -11 -10z"/>
<path d="M1890 6755 c-96 -7 -188 -17 -205 -23 -16 -6 -43 -14 -58 -17 -22 -4
-28 -10 -25 -28 3 -19 10 -22 63 -25 33 -2 85 4 120 13 84 23 407 17 474 -8
24 -10 69 -20 100 -23 57 -5 157 -32 246 -65 28 -11 57 -19 65 -19 8 0 29 -9
45 -20 17 -11 37 -20 46 -20 28 0 354 -155 389 -185 8 -7 26 -16 40 -20 14 -4
32 -13 40 -20 34 -27 103 -55 136 -55 71 0 48 55 -46 108 -30 18 -73 43 -95
57 -61 37 -323 165 -338 165 -8 0 -26 9 -40 20 -14 11 -38 20 -54 20 -15 0
-41 9 -58 20 -16 11 -41 20 -55 20 -14 0 -42 9 -63 20 -20 11 -52 20 -69 20
-18 1 -51 8 -73 17 -22 8 -112 23 -200 33 -88 10 -171 20 -185 22 -14 3 -104
0 -200 -7z"/>
<path d="M13581 6683 c-1 -24 -6 -33 -18 -34 -13 0 -11 -3 6 -10 32 -13 35 -7
23 38 l-10 38 -1 -32z"/>
<path d="M16700 6687 c-19 -11 -61 -40 -92 -64 -31 -24 -65 -46 -75 -51 -10
-4 -39 -22 -63 -40 -53 -39 -91 -65 -555 -376 -193 -129 -360 -238 -370 -242
-11 -4 -22 -10 -25 -14 -11 -14 -118 -90 -127 -90 -5 0 -35 -19 -66 -42 -60
-46 -143 -101 -239 -160 -33 -20 -77 -49 -97 -65 -20 -16 -52 -38 -71 -49 -19
-10 -57 -36 -84 -57 -27 -21 -68 -48 -90 -59 -23 -11 -57 -35 -76 -52 -19 -17
-73 -57 -120 -89 -47 -31 -135 -96 -197 -145 -61 -48 -122 -94 -135 -103 -13
-10 -21 -19 -18 -22 3 -3 30 11 60 31 31 20 87 57 125 82 422 270 1678 1116
1893 1274 150 110 301 221 336 246 124 89 175 141 86 87z"/>
<path d="M13815 6670 c-34 -5 -41 -7 -20 -9 17 -1 61 -12 100 -25 l70 -24 -38
34 c-20 19 -42 33 -49 32 -7 0 -35 -4 -63 -8z"/>
<path d="M12853 6623 c9 -2 23 -2 30 0 6 3 -1 5 -18 5 -16 0 -22 -2 -12 -5z"/>
<path d="M12756 6604 c-8 -21 -3 -26 17 -18 24 9 30 34 8 34 -10 0 -22 -7 -25
-16z"/>
<path d="M13706 6613 c-3 -4 19 -17 50 -30 32 -13 59 -21 61 -19 3 2 -13 16
-34 30 -37 26 -63 32 -77 19z"/>
<path d="M13241 6584 c0 -11 3 -14 6 -6 3 7 2 16 -1 19 -3 4 -6 -2 -5 -13z"/>
<path d="M13525 6590 c-8 -13 5 -13 25 0 13 8 13 10 -2 10 -9 0 -20 -4 -23
-10z"/>
<path d="M13970 6596 c0 -2 7 -9 15 -16 12 -10 15 -10 15 4 0 9 -7 16 -15 16
-8 0 -15 -2 -15 -4z"/>
<path d="M12050 6580 c0 -5 7 -7 15 -4 8 4 15 8 15 10 0 2 -7 4 -15 4 -8 0
-15 -4 -15 -10z"/>
<path d="M14030 6586 c0 -1 14 -13 31 -25 28 -21 30 -21 20 -3 -8 15 -51 39
-51 28z"/>
<path d="M12900 6570 c0 -5 10 -10 23 -10 18 0 19 2 7 10 -19 13 -30 13 -30 0z"/>
<path d="M13385 6560 c-10 -11 -14 -20 -8 -20 5 0 18 9 28 20 10 11 14 20 8
20 -5 0 -18 -9 -28 -20z"/>
<path d="M13450 6551 c-55 -34 -80 -61 -57 -61 8 0 21 8 28 17 8 9 32 29 53
45 50 36 34 36 -24 -1z"/>
<path d="M13840 6460 c0 -38 4 -59 10 -55 6 3 10 28 10 55 0 27 -4 52 -10 55
-6 4 -10 -17 -10 -55z"/>
<path d="M13920 6420 c0 -5 7 -10 16 -10 8 0 12 5 9 10 -3 6 -10 10 -16 10 -5
0 -9 -4 -9 -10z"/>
<path d="M13700 6411 c0 -6 11 -11 24 -11 16 0 31 -11 45 -32 13 -21 21 -27
21 -17 0 9 -8 26 -17 37 -20 24 -73 40 -73 23z"/>
<path d="M13691 6370 c0 -8 4 -24 9 -35 5 -13 9 -14 9 -5 0 8 -4 24 -9 35 -5
13 -9 14 -9 5z"/>
<path d="M13921 6364 c0 -11 3 -14 6 -6 3 7 2 16 -1 19 -3 4 -6 -2 -5 -13z"/>
<path d="M13991 6343 c-1 -12 -4 -30 -7 -40 -6 -17 -6 -17 11 -1 15 14 16 21
7 40 -11 23 -11 23 -11 1z"/>
<path d="M415 5022 c-25 -39 -26 -45 -27 -188 l0 -147 39 -75 c45 -89 112
-166 188 -217 65 -43 115 -54 134 -32 17 22 6 37 -64 90 -108 82 -195 192
-195 247 0 10 -7 34 -15 53 -19 47 -19 111 1 169 8 25 14 66 12 90 -2 35 -7
44 -25 46 -16 2 -29 -7 -48 -36z"/>
<path d="M693 4988 c-6 -7 -16 -36 -23 -65 -11 -41 -11 -60 -2 -91 7 -22 12
-48 12 -58 0 -11 15 -48 32 -82 42 -81 122 -146 194 -157 35 -5 50 -3 61 8 13
13 13 18 -2 41 -10 15 -30 33 -44 41 -46 23 -118 94 -147 142 -22 38 -28 63
-32 128 -4 74 -13 105 -32 105 -4 0 -12 -6 -17 -12z"/>
<path d="M962 4978 c-16 -16 -15 -49 3 -72 8 -11 15 -28 15 -38 0 -29 98 -73
144 -64 57 11 46 43 -26 79 -46 23 -58 33 -58 52 0 23 -32 55 -55 55 -6 0 -16
-5 -23 -12z"/>
<path d="M14115 4904 c-16 -15 -41 -36 -55 -48 -43 -36 -264 -230 -280 -246
-9 -8 -69 -64 -134 -125 -179 -166 -474 -503 -629 -718 -21 -28 -52 -72 -70
-96 -32 -44 -44 -63 -105 -164 -17 -30 -39 -60 -47 -67 -8 -7 -15 -18 -15 -25
0 -8 -11 -27 -25 -43 -14 -17 -25 -33 -25 -37 0 -4 -24 -48 -54 -98 -58 -100
-107 -190 -190 -350 -59 -115 -75 -145 -88 -167 -4 -8 -17 -34 -27 -56 -11
-23 -24 -45 -30 -48 -6 -4 -11 -14 -11 -23 0 -19 -137 -300 -151 -308 -5 -4
-9 -16 -9 -28 0 -12 -9 -37 -20 -55 -11 -18 -20 -39 -20 -46 0 -7 -9 -24 -19
-38 -11 -13 -23 -36 -26 -51 -4 -14 -13 -31 -21 -38 -8 -6 -14 -18 -14 -27 0
-8 -29 -74 -65 -147 -36 -73 -65 -136 -65 -140 0 -4 -9 -18 -20 -32 -11 -14
-20 -33 -20 -43 0 -9 -9 -25 -20 -35 -11 -10 -20 -26 -20 -35 0 -9 -9 -25 -20
-35 -11 -10 -20 -28 -20 -40 0 -13 -7 -28 -15 -35 -8 -7 -15 -18 -15 -25 0 -8
-11 -27 -25 -43 -14 -17 -25 -38 -25 -48 0 -17 1 -17 19 1 10 11 64 86 119
168 110 160 139 214 750 1397 46 91 102 197 123 236 40 74 569 862 616 918 21
26 244 261 707 746 93 97 112 120 100 120 -5 0 -22 -12 -39 -26z"/>
<path d="M11393 3653 c-25 -9 -12 -41 32 -82 55 -51 79 -51 83 1 3 33 -1 39
-35 62 -37 25 -55 30 -80 19z"/>
<path d="M11135 3519 c-15 -24 117 -161 166 -172 32 -8 55 13 42 38 -5 9 -42
45 -83 80 -70 63 -110 80 -125 54z"/>
<path d="M10996 3314 c-9 -8 -16 -20 -16 -26 0 -6 27 -38 59 -70 60 -60 92
-72 99 -35 5 25 -93 147 -118 147 -5 0 -16 -7 -24 -16z"/>
<path d="M10670 3230 c-15 -28 -5 -41 79 -104 40 -30 87 -74 104 -98 17 -24
36 -46 42 -50 25 -18 85 -2 85 23 0 35 -200 214 -268 240 -31 12 -30 12 -42
-11z"/>
<path d="M10446 3088 c-25 -14 -19 -46 13 -62 90 -47 158 -103 240 -196 34
-38 43 -43 58 -34 52 33 -19 143 -144 225 -84 56 -144 80 -167 67z"/>
<path d="M9848 2973 c-9 -2 -19 -12 -23 -21 -10 -25 37 -60 92 -68 27 -4 64
-15 83 -25 19 -11 43 -19 53 -19 11 0 31 -6 45 -14 15 -8 52 -26 82 -41 30
-15 64 -35 75 -44 11 -9 37 -25 58 -35 21 -11 66 -45 99 -75 34 -31 73 -63 87
-72 14 -9 49 -37 76 -63 40 -37 56 -46 80 -44 51 5 44 36 -25 111 -63 69 -212
191 -265 219 -140 71 -216 107 -247 117 -21 7 -40 16 -43 21 -2 4 -26 11 -52
15 -27 4 -61 12 -78 19 -40 17 -77 24 -97 19z"/>
<path d="M11687 1303 c-4 -3 -7 -13 -7 -21 0 -12 3 -12 15 -2 8 7 15 16 15 21
0 11 -14 12 -23 2z"/>
<path d="M9904 787 c-32 -28 -28 -53 11 -63 38 -10 127 34 123 61 -3 17 -12
21 -54 23 -43 2 -57 -1 -80 -21z"/>
<path d="M10110 560 c-19 -11 -43 -19 -53 -20 -10 0 -30 -8 -44 -17 -24 -16
-51 -18 -211 -16 -182 1 -183 1 -180 -20 2 -16 18 -27 63 -43 78 -29 301 -34
362 -8 149 63 184 93 143 126 -27 22 -36 22 -80 -2z"/>
<path d="M10253 309 c-18 -5 -35 -14 -38 -19 -3 -6 -20 -10 -36 -10 -17 0 -51
-9 -77 -19 -40 -16 -186 -34 -277 -34 -91 1 -309 28 -356 45 -71 25 -133 22
-137 -8 -2 -16 8 -25 45 -41 26 -12 69 -24 96 -27 26 -3 60 -12 76 -21 45 -23
485 -34 526 -13 17 8 50 18 74 22 24 4 56 13 72 21 15 8 35 15 44 15 25 0 85
50 85 70 0 30 -36 37 -97 19z"/>
</g>
</svg>
